<?xml version="1.0" standalone="yes"?>
<svg xmlns="http://www.w3.org/2000/svg" width="920" height="800">
<path style="fill:#ffffff; stroke:none;" d="M0 0L0 15L15 15L15 30L0 30L0 45L15 45L15 60L0 60L0 75L15 75L15 90L0 90L0 105L15 105L15 120L0 120L0 135L15 135L15 150L0 150L0 165L15 165L15 180L0 180L0 195L15 195L15 210L0 210L0 225L15 225L15 240L0 240L0 255L15 255L15 270L0 270L0 285L15 285L15 300L0 300L0 315L15 315L15 330L0 330L0 345L15 345L15 360L0 360L0 375L15 375L15 390L0 390L0 405L15 405L15 420L0 420L0 435L15 435L15 450L0 450L0 465L15 465L15 480L0 480L0 495L15 495L15 510L0 510L0 525L15 525L15 540L0 540L0 555L15 555L15 570L0 570L0 585L15 585L15 600L0 600L0 615L15 615L15 630L0 630L0 645L15 645L15 660L0 660L0 675L15 675L15 690L0 690L0 705L15 705L15 720L0 720L0 735L15 735L15 750L0 750L0 765L15 765L15 780L0 780L0 795L15 795L15 800L30 800L30 795L45 795L45 800L60 800L60 795L75 795L75 800L90 800L90 795L105 795L105 800L120 800L120 795L135 795L135 800L150 800L150 795L165 795L165 800L180 800L180 795L195 795L195 800L210 800L210 795L225 795L225 800L240 800L240 795L255 795L255 800L270 800L270 795L285 795L285 800L300 800L300 795L315 795L315 800L330 800L330 795L345 795L345 800L360 800L360 795L375 795L375 800L390 800L390 795L405 795L405 800L420 800L420 795L435 795L435 800L450 800L450 795L465 795L465 800L480 800L480 795L495 795L495 800L510 800L510 795L525 795L525 800L540 800L540 795L555 795L555 800L570 800L570 795L585 795L585 800L600 800L600 795L615 795L615 800L630 800L630 795L645 795L645 800L660 800L660 795L675 795L675 800L690 800L690 795L705 795L705 800L720 800L720 795L735 795L735 800L750 800L750 795L765 795L765 800L780 800L780 795L795 795L795 800L810 800L810 795L825 795L825 800L840 800L840 795L855 795L855 800L870 800L870 795L885 795L885 800L900 800L900 795L915 795L915 800L920 800L920 795L915 795L915 780L920 780L920 765L915 765L915 750L920 750L920 735L915 735L915 720L920 720L920 705L915 705L915 690L920 690L920 675L915 675L915 660L920 660L920 645L915 645L915 630L920 630L920 615L915 615L915 600L920 600L920 585L915 585L915 570L920 570L920 555L915 555L915 540L920 540L920 525L915 525L915 510L920 510L920 495L915 495L915 480L920 480L920 465L915 465L915 450L920 450L920 435L915 435L915 420L920 420L920 405L915 405L915 390L920 390L920 375L915 375L915 360L920 360L920 345L915 345L915 330L920 330L920 315L915 315L915 300L920 300L920 285L915 285L915 270L920 270L920 255L915 255L915 240L920 240L920 225L915 225L915 210L920 210L920 195L915 195L915 180L920 180L920 165L915 165L915 150L920 150L920 135L915 135L915 120L920 120L920 105L915 105L915 90L920 90L920 75L915 75L915 60L920 60L920 45L915 45L915 30L920 30L920 15L915 15L915 0L900 0L900 15L885 15L885 0L870 0L870 15L855 15L855 0L840 0L840 15L825 15L825 0L810 0L810 15L795 15L795 0L780 0L780 15L765 15L765 0L750 0L750 15L735 15L735 0L720 0L720 15L705 15L705 0L690 0L690 15L675 15L675 0L660 0L660 15L645 15L645 0L630 0L630 15L615 15L615 0L600 0L600 15L585 15L585 0L570 0L570 15L555 15L555 0L540 0L540 15L525 15L525 0L510 0L510 15L495 15L495 0L480 0L480 15L465 15L465 0L450 0L450 15L435 15L435 0L420 0L420 15L405 15L405 0L390 0L390 15L375 15L375 0L360 0L360 15L345 15L345 0L330 0L330 15L315 15L315 0L300 0L300 15L285 15L285 0L270 0L270 15L255 15L255 0L240 0L240 15L225 15L225 0L210 0L210 15L195 15L195 0L180 0L180 15L165 15L165 0L150 0L150 15L135 15L135 0L120 0L120 15L105 15L105 0L90 0L90 15L75 15L75 0L60 0L60 15L45 15L45 0L30 0L30 15L15 15L15 0L0 0z"/>
<path style="fill:#e7e7e7; stroke:none;" d="M15 0L15 15L30 15L30 0L15 0M45 0L45 15L60 15L60 0L45 0M75 0L75 15L90 15L90 0L75 0M105 0L105 15L120 15L120 0L105 0M135 0L135 15L150 15L150 0L135 0M165 0L165 15L180 15L180 0L165 0M195 0L195 15L210 15L210 0L195 0M225 0L225 15L240 15L240 0L225 0M255 0L255 15L270 15L270 0L255 0M285 0L285 15L300 15L300 0L285 0M315 0L315 15L330 15L330 0L315 0M345 0L345 15L360 15L360 0L345 0M375 0L375 15L390 15L390 0L375 0M405 0L405 15L420 15L420 0L405 0M435 0L435 15L450 15L450 0L435 0M465 0L465 15L480 15L480 0L465 0M495 0L495 15L510 15L510 0L495 0M525 0L525 15L540 15L540 0L525 0M555 0L555 15L570 15L570 0L555 0M585 0L585 15L600 15L600 0L585 0M615 0L615 15L630 15L630 0L615 0M645 0L645 15L660 15L660 0L645 0M675 0L675 15L690 15L690 0L675 0M705 0L705 15L720 15L720 0L705 0M735 0L735 15L750 15L750 0L735 0M765 0L765 15L780 15L780 0L765 0M795 0L795 15L810 15L810 0L795 0M825 0L825 15L840 15L840 0L825 0M855 0L855 15L870 15L870 0L855 0M885 0L885 15L900 15L900 0L885 0M915 0L915 15L920 15L920 0L915 0M0 15L0 30L15 30L15 15L0 15M30 15L30 30L15 30L15 45L30 45L30 60L15 60L15 75L30 75L30 90L15 90L15 105L30 105L30 120L15 120L15 135L30 135L30 150L15 150L15 165L30 165L30 180L15 180L15 195L30 195L30 210L15 210L15 225L30 225L30 240L15 240L15 255L30 255L30 270L15 270L15 285L30 285L30 300L15 300L15 315L30 315L30 330L15 330L15 345L30 345L30 360L15 360L15 375L30 375L30 390L15 390L15 405L30 405L30 420L15 420L15 435L30 435L30 450L15 450L15 465L30 465L30 480L15 480L15 495L30 495L30 510L15 510L15 525L30 525L30 540L15 540L15 555L30 555L30 570L15 570L15 585L30 585L30 600L15 600L15 615L30 615L30 630L15 630L15 645L30 645L30 660L15 660L15 675L30 675L30 690L15 690L15 705L30 705L30 720L15 720L15 735L30 735L30 750L15 750L15 765L30 765L30 780L15 780L15 795L30 795L30 780L45 780L45 795L60 795L60 780L75 780L75 795L90 795L90 780L105 780L105 795L120 795L120 780L135 780L135 795L150 795L150 780L165 780L165 795L180 795L180 780L195 780L195 795L210 795L210 780L225 780L225 795L240 795L240 780L255 780L255 795L270 795L270 780L285 780L285 795L300 795L300 780L315 780L315 795L330 795L330 780L345 780L345 795L360 795L360 780L375 780L375 795L390 795L390 780L405 780L405 795L420 795L420 780L435 780L435 795L450 795L450 780L465 780L465 795L480 795L480 780L495 780L495 795L510 795L510 780L525 780L525 795L540 795L540 780L555 780L555 795L570 795L570 780L585 780L585 795L600 795L600 780L615 780L615 795L630 795L630 780L645 780L645 795L660 795L660 780L675 780L675 795L690 795L690 780L705 780L705 795L720 795L720 780L735 780L735 795L750 795L750 780L765 780L765 795L780 795L780 780L795 780L795 795L810 795L810 780L825 780L825 795L840 795L840 780L855 780L855 795L870 795L870 780L885 780L885 795L900 795L900 780L915 780L915 765L900 765L900 750L915 750L915 735L900 735L900 720L915 720L915 705L900 705L900 690L915 690L915 675L900 675L900 660L915 660L915 645L900 645L900 630L915 630L915 615L900 615L900 600L915 600L915 585L900 585L900 570L915 570L915 555L900 555L900 540L915 540L915 525L900 525L900 510L915 510L915 495L900 495L900 480L915 480L915 465L900 465L900 450L915 450L915 435L900 435L900 420L915 420L915 405L900 405L900 390L915 390L915 375L900 375L900 360L915 360L915 345L900 345L900 330L915 330L915 315L900 315L900 300L915 300L915 285L900 285L900 270L915 270L915 255L900 255L900 240L915 240L915 225L900 225L900 210L915 210L915 195L900 195L900 180L915 180L915 165L900 165L900 150L915 150L915 135L900 135L900 120L915 120L915 105L900 105L900 90L915 90L915 75L900 75L900 60L915 60L915 45L900 45L900 30L915 30L915 15L900 15L900 30L885 30L885 15L870 15L870 30L855 30L855 15L840 15L840 30L825 30L825 15L810 15L810 30L795 30L795 15L780 15L780 30L765 30L765 15L750 15L750 30L735 30L735 15L720 15L720 30L705 30L705 15L690 15L690 30L675 30L675 15L660 15L660 30L645 30L645 15L630 15L630 30L615 30L615 15L600 15L600 30L585 30L585 15L570 15L570 30L555 30L555 15L540 15L540 30L525 30L525 15L510 15L510 30L495 30L495 15L480 15L480 30L465 30L465 15L450 15L450 30L435 30L435 15L420 15L420 30L405 30L405 15L390 15L390 30L375 30L375 15L360 15L360 30L345 30L345 15L330 15L330 30L315 30L315 15L300 15L300 30L285 30L285 15L270 15L270 30L255 30L255 15L240 15L240 30L225 30L225 15L210 15L210 30L195 30L195 15L180 15L180 30L165 30L165 15L150 15L150 30L135 30L135 15L120 15L120 30L105 30L105 15L90 15L90 30L75 30L75 15L60 15L60 30L45 30L45 15L30 15z"/>
<path style="fill:#ffffff; stroke:none;" d="M30 30L30 45L45 45L45 60L30 60L30 75L45 75L45 90L30 90L30 105L45 105L45 120L30 120L30 135L45 135L45 150L30 150L30 165L45 165L45 180L30 180L30 195L45 195L45 210L30 210L30 225L45 225L45 240L30 240L30 255L45 255L45 270L30 270L30 285L45 285L45 300L30 300L30 315L45 315L45 330L30 330L30 345L45 345L45 360L30 360L30 375L45 375L45 390L30 390L30 405L45 405L45 420L30 420L30 435L45 435L45 450L30 450L30 465L45 465L45 480L30 480L30 495L45 495L45 510L30 510L30 525L45 525L45 540L30 540L30 555L45 555L45 570L30 570L30 585L45 585L45 600L30 600L30 615L45 615L45 630L30 630L30 645L45 645L45 660L30 660L30 675L45 675L45 690L30 690L30 705L45 705L45 720L30 720L30 735L45 735L45 750L30 750L30 765L45 765L45 780L60 780L60 765L75 765L75 780L90 780L90 765L105 765L105 780L120 780L120 765L135 765L135 780L150 780L150 765L165 765L165 780L180 780L180 765L195 765L195 780L210 780L210 765L225 765L225 780L240 780L240 765L255 765L255 780L270 780L270 765L285 765L285 780L300 780L300 765L315 765L315 780L330 780L330 765L345 765L345 780L360 780L360 765L375 765L375 780L390 780L390 765L405 765L405 780L420 780L420 765L435 765L435 780L450 780L450 765L465 765L465 780L480 780L480 765L495 765L495 780L510 780L510 765L525 765L525 780L540 780L540 765L555 765L555 780L570 780L570 765L585 765L585 780L600 780L600 765L615 765L615 780L630 780L630 765L645 765L645 780L660 780L660 765L675 765L675 780L690 780L690 765L705 765L705 780L720 780L720 765L735 765L735 780L750 780L750 765L765 765L765 780L780 780L780 765L795 765L795 780L810 780L810 765L825 765L825 780L840 780L840 765L855 765L855 780L870 780L870 765L885 765L885 780L900 780L900 765L885 765L885 750L900 750L900 735L885 735L885 720L900 720L900 705L885 705L885 690L900 690L900 675L885 675L885 660L900 660L900 645L885 645L885 630L900 630L900 615L885 615L885 600L900 600L900 585L885 585L885 570L900 570L900 555L885 555L885 540L900 540L900 525L885 525L885 510L900 510L900 495L885 495L885 480L900 480L900 465L885 465L885 450L900 450L900 435L885 435L885 420L900 420L900 405L885 405L885 390L900 390L900 375L885 375L885 360L900 360L900 345L885 345L885 330L900 330L900 315L885 315L885 300L900 300L900 285L885 285L885 270L900 270L900 255L885 255L885 240L900 240L900 225L885 225L885 210L900 210L900 195L885 195L885 180L900 180L900 165L885 165L885 150L900 150L900 135L885 135L885 120L900 120L900 105L885 105L885 90L900 90L900 75L885 75L885 60L900 60L900 45L885 45L885 30L870 30L870 45L855 45L855 30L840 30L840 45L825 45L825 30L810 30L810 45L795 45L795 30L780 30L780 45L765 45L765 30L750 30L750 45L735 45L735 30L720 30L720 45L705 45L705 30L690 30L690 45L675 45L675 30L660 30L660 45L645 45L645 30L630 30L630 45L615 45L615 30L600 30L600 45L585 45L585 30L570 30L570 45L555 45L555 30L540 30L540 45L525 45L525 30L510 30L510 45L495 45L495 30L480 30L480 45L465 45L465 30L450 30L450 45L435 45L435 30L420 30L420 45L405 45L405 30L390 30L390 45L375 45L375 30L360 30L360 45L345 45L345 30L330 30L330 45L315 45L315 30L300 30L300 45L285 45L285 30L270 30L270 45L255 45L255 30L240 30L240 45L225 45L225 30L210 30L210 45L195 45L195 30L180 30L180 45L165 45L165 30L150 30L150 45L135 45L135 30L120 30L120 45L105 45L105 30L90 30L90 45L75 45L75 30L60 30L60 45L45 45L45 30L30 30z"/>
<path style="fill:#e7e7e7; stroke:none;" d="M915 30L915 45L920 45L920 30L915 30M0 45L0 60L15 60L15 45L0 45M60 45L60 60L45 60L45 75L60 75L60 90L45 90L45 105L60 105L60 120L45 120L45 135L60 135L60 150L45 150L45 165L60 165L60 180L45 180L45 195L60 195L60 210L45 210L45 225L60 225L60 240L45 240L45 255L60 255L60 270L45 270L45 285L60 285L60 300L45 300L45 315L60 315L60 330L45 330L45 345L60 345L60 360L45 360L45 375L60 375L60 390L45 390L45 405L60 405L60 420L45 420L45 435L60 435L60 450L45 450L45 465L60 465L60 480L45 480L45 495L60 495L60 510L45 510L45 525L60 525L60 540L45 540L45 555L60 555L60 570L45 570L45 585L60 585L60 600L45 600L45 615L60 615L60 630L45 630L45 645L60 645L60 660L45 660L45 675L60 675L60 690L45 690L45 705L60 705L60 720L45 720L45 735L60 735L60 750L45 750L45 765L60 765L60 750L75 750L75 765L90 765L90 750L105 750L105 765L120 765L120 750L135 750L135 765L150 765L150 750L165 750L165 765L180 765L180 750L195 750L195 765L210 765L210 750L225 750L225 765L240 765L240 750L255 750L255 765L270 765L270 750L285 750L285 765L300 765L300 750L315 750L315 765L330 765L330 750L345 750L345 765L360 765L360 750L375 750L375 765L390 765L390 750L405 750L405 765L420 765L420 750L435 750L435 765L450 765L450 750L465 750L465 765L480 765L480 750L495 750L495 765L510 765L510 750L525 750L525 765L540 765L540 750L555 750L555 765L570 765L570 750L585 750L585 765L600 765L600 750L615 750L615 765L630 765L630 750L645 750L645 765L660 765L660 750L675 750L675 765L690 765L690 750L705 750L705 765L720 765L720 750L735 750L735 765L750 765L750 750L765 750L765 765L780 765L780 750L795 750L795 765L810 765L810 750L825 750L825 765L840 765L840 750L855 750L855 765L870 765L870 750L885 750L885 735L870 735L870 720L885 720L885 705L870 705L870 690L885 690L885 675L870 675L870 660L885 660L885 645L870 645L870 630L885 630L885 615L870 615L870 600L885 600L885 585L870 585L870 570L885 570L885 555L870 555L870 540L885 540L885 525L870 525L870 510L885 510L885 495L870 495L870 480L885 480L885 465L870 465L870 450L885 450L885 435L870 435L870 420L885 420L885 405L870 405L870 390L885 390L885 375L870 375L870 360L885 360L885 345L870 345L870 330L885 330L885 315L870 315L870 300L885 300L885 285L870 285L870 270L885 270L885 255L870 255L870 240L885 240L885 225L870 225L870 210L885 210L885 195L870 195L870 180L885 180L885 165L870 165L870 150L885 150L885 135L870 135L870 120L885 120L885 105L870 105L870 90L885 90L885 75L870 75L870 60L885 60L885 45L870 45L870 60L855 60L855 45L840 45L840 60L825 60L825 45L810 45L810 60L795 60L795 45L780 45L780 60L765 60L765 45L750 45L750 60L735 60L735 45L720 45L720 60L705 60L705 45L690 45L690 60L675 60L675 45L660 45L660 60L645 60L645 45L630 45L630 60L615 60L615 45L600 45L600 60L585 60L585 45L570 45L570 60L555 60L555 45L540 45L540 60L525 60L525 45L510 45L510 60L495 60L495 45L480 45L480 60L465 60L465 45L450 45L450 60L435 60L435 45L420 45L420 60L405 60L405 45L390 45L390 60L375 60L375 45L360 45L360 60L345 60L345 45L330 45L330 60L315 60L315 45L300 45L300 60L285 60L285 45L270 45L270 60L255 60L255 45L240 45L240 60L225 60L225 45L210 45L210 60L195 60L195 45L180 45L180 60L165 60L165 45L150 45L150 60L135 60L135 45L120 45L120 60L105 60L105 45L90 45L90 60L75 60L75 45L60 45z"/>
<path style="fill:#ffffff; stroke:none;" d="M60 60L60 75L75 75L75 90L60 90L60 105L75 105L75 120L60 120L60 135L75 135L75 150L60 150L60 165L75 165L75 180L60 180L60 195L75 195L75 210L60 210L60 225L75 225L75 240L60 240L60 255L75 255L75 270L60 270L60 285L75 285L75 300L60 300L60 315L75 315L75 330L60 330L60 345L75 345L75 360L60 360L60 375L75 375L75 390L60 390L60 405L75 405L75 420L60 420L60 435L75 435L75 450L60 450L60 465L75 465L75 480L60 480L60 495L75 495L75 510L60 510L60 525L75 525L75 540L60 540L60 555L75 555L75 570L60 570L60 585L75 585L75 600L60 600L60 615L75 615L75 630L60 630L60 645L75 645L75 660L60 660L60 675L75 675L75 690L60 690L60 705L75 705L75 720L60 720L60 735L75 735L75 750L90 750L90 735L105 735L105 750L120 750L120 735L135 735L135 750L150 750L150 735L165 735L165 750L180 750L180 735L195 735L195 750L210 750L210 735L225 735L225 750L240 750L240 735L255 735L255 750L270 750L270 735L285 735L285 750L300 750L300 735L315 735L315 750L330 750L330 735L345 735L345 750L360 750L360 735L375 735L375 750L390 750L390 735L405 735L405 750L420 750L420 735L435 735L435 750L450 750L450 735L465 735L465 750L480 750L480 735L495 735L495 750L510 750L510 735L525 735L525 750L540 750L540 735L555 735L555 750L570 750L570 735L585 735L585 750L600 750L600 735L615 735L615 750L630 750L630 735L645 735L645 750L660 750L660 735L675 735L675 750L690 750L690 735L705 735L705 750L720 750L720 735L735 735L735 750L750 750L750 735L765 735L765 750L780 750L780 735L795 735L795 750L810 750L810 735L825 735L825 750L840 750L840 735L855 735L855 750L870 750L870 735L855 735L855 720L870 720L870 705L855 705L855 690L870 690L870 675L855 675L855 660L870 660L870 645L855 645L855 630L870 630L870 615L855 615L855 600L870 600L870 585L855 585L855 570L870 570L870 555L855 555L855 540L870 540L870 525L855 525L855 510L870 510L870 495L855 495L855 480L870 480L870 465L855 465L855 450L870 450L870 435L855 435L855 420L870 420L870 405L855 405L855 390L870 390L870 375L855 375L855 360L870 360L870 345L855 345L855 330L870 330L870 315L855 315L855 300L870 300L870 285L855 285L855 270L870 270L870 255L855 255L855 240L870 240L870 225L855 225L855 210L870 210L870 195L855 195L855 180L870 180L870 165L855 165L855 150L870 150L870 135L855 135L855 120L870 120L870 105L855 105L855 90L870 90L870 75L855 75L855 60L840 60L840 75L825 75L825 60L810 60L810 75L795 75L795 60L780 60L780 75L765 75L765 60L750 60L750 75L735 75L735 60L720 60L720 75L705 75L705 60L690 60L690 75L675 75L675 60L660 60L660 75L645 75L645 60L630 60L630 75L615 75L615 60L600 60L600 75L585 75L585 60L570 60L570 75L555 75L555 60L540 60L540 75L525 75L525 60L510 60L510 75L495 75L495 60L480 60L480 75L465 75L465 60L450 60L450 75L435 75L435 60L420 60L420 75L405 75L405 60L390 60L390 75L375 75L375 60L360 60L360 75L345 75L345 60L330 60L330 75L315 75L315 60L300 60L300 75L285 75L285 60L270 60L270 75L255 75L255 60L240 60L240 75L225 75L225 60L210 60L210 75L195 75L195 60L180 60L180 75L165 75L165 60L150 60L150 75L135 75L135 60L120 60L120 75L105 75L105 60L90 60L90 75L75 75L75 60L60 60z"/>
<path style="fill:#e7e7e7; stroke:none;" d="M915 60L915 75L920 75L920 60L915 60M0 75L0 90L15 90L15 75L0 75M90 75L90 90L75 90L75 105L90 105L90 120L75 120L75 135L90 135L90 150L75 150L75 165L90 165L90 180L75 180L75 195L90 195L90 210L75 210L75 225L90 225L90 240L75 240L75 255L90 255L90 270L75 270L75 285L90 285L90 300L75 300L75 315L90 315L90 330L75 330L75 345L90 345L90 360L75 360L75 375L90 375L90 390L75 390L75 405L90 405L90 420L75 420L75 435L90 435L90 450L75 450L75 465L90 465L90 480L75 480L75 495L90 495L90 510L75 510L75 525L90 525L90 540L75 540L75 555L90 555L90 570L75 570L75 585L90 585L90 600L75 600L75 615L90 615L90 630L75 630L75 645L90 645L90 660L75 660L75 675L90 675L90 690L75 690L75 705L90 705L90 720L75 720L75 735L90 735L90 720L105 720L105 735L120 735L120 720L135 720L135 735L150 735L150 720L165 720L165 735L180 735L180 720L195 720L195 735L210 735L210 720L225 720L225 735L240 735L240 720L255 720L255 735L270 735L270 720L285 720L285 735L300 735L300 720L315 720L315 735L330 735L330 720L345 720L345 735L360 735L360 720L375 720L375 735L390 735L390 720L405 720L405 735L420 735L420 720L435 720L435 735L450 735L450 720L465 720L465 735L480 735L480 720L495 720L495 735L510 735L510 720L525 720L525 735L540 735L540 720L555 720L555 735L570 735L570 720L585 720L585 735L600 735L600 720L615 720L615 735L630 735L630 720L645 720L645 735L660 735L660 720L675 720L675 735L690 735L690 720L705 720L705 735L720 735L720 720L735 720L735 735L750 735L750 720L765 720L765 735L780 735L780 720L795 720L795 735L810 735L810 720L825 720L825 735L840 735L840 720L855 720L855 705L840 705L840 690L855 690L855 675L840 675L840 660L855 660L855 645L840 645L840 630L855 630L855 615L840 615L840 600L855 600L855 585L840 585L840 570L855 570L855 555L840 555L840 540L855 540L855 525L840 525L840 510L855 510L855 495L840 495L840 480L855 480L855 465L840 465L840 450L855 450L855 435L840 435L840 420L855 420L855 405L840 405L840 390L855 390L855 375L840 375L840 360L855 360L855 345L840 345L840 330L855 330L855 315L840 315L840 300L855 300L855 285L840 285L840 270L855 270L855 255L840 255L840 240L855 240L855 225L840 225L840 210L855 210L855 195L840 195L840 180L855 180L855 165L840 165L840 150L855 150L855 135L840 135L840 120L855 120L855 105L840 105L840 90L855 90L855 75L840 75L840 90L825 90L825 75L810 75L810 90L795 90L795 75L780 75L780 90L765 90L765 75L750 75L750 90L735 90L735 75L720 75L720 90L705 90L705 75L690 75L690 90L675 90L675 75L660 75L660 90L645 90L645 75L630 75L630 90L615 90L615 75L600 75L600 90L585 90L585 75L570 75L570 90L555 90L555 75L540 75L540 90L525 90L525 75L510 75L510 90L495 90L495 75L480 75L480 90L465 90L465 75L450 75L450 90L435 90L435 75L420 75L420 90L405 90L405 75L390 75L390 90L375 90L375 75L360 75L360 90L345 90L345 75L330 75L330 90L315 90L315 75L300 75L300 90L285 90L285 75L270 75L270 90L255 90L255 75L240 75L240 90L225 90L225 75L210 75L210 90L195 90L195 75L180 75L180 90L165 90L165 75L150 75L150 90L135 90L135 75L120 75L120 90L105 90L105 75L90 75z"/>
<path style="fill:#ffffff; stroke:none;" d="M90 90L90 105L105 105L105 120L90 120L90 135L105 135L105 150L90 150L90 165L105 165L105 180L90 180L90 195L105 195L105 210L90 210L90 225L105 225L105 240L90 240L90 255L105 255L105 270L90 270L90 285L105 285L105 300L90 300L90 315L105 315L105 330L90 330L90 345L105 345L105 360L90 360L90 375L105 375L105 390L90 390L90 405L105 405L105 420L90 420L90 435L105 435L105 450L90 450L90 465L105 465L105 480L90 480L90 495L105 495L105 510L90 510L90 525L105 525L105 540L90 540L90 555L105 555L105 570L90 570L90 585L105 585L105 600L90 600L90 615L105 615L105 630L90 630L90 645L105 645L105 660L90 660L90 675L105 675L105 690L90 690L90 705L105 705L105 720L120 720L120 705L135 705L135 720L150 720L150 705L165 705L165 720L180 720L180 705L195 705L195 720L210 720L210 705L225 705L225 720L240 720L240 705L255 705L255 720L270 720L270 705L285 705L285 720L300 720L300 705L315 705L315 720L330 720L330 705L345 705L345 720L360 720L360 705L375 705L375 720L390 720L390 705L405 705L405 720L420 720L420 705L435 705L435 720L450 720L450 705L465 705L465 720L480 720L480 705L495 705L495 720L510 720L510 705L525 705L525 720L540 720L540 705L555 705L555 720L570 720L570 705L585 705L585 720L600 720L600 705L615 705L615 720L630 720L630 705L645 705L645 720L660 720L660 705L675 705L675 720L690 720L690 705L705 705L705 720L720 720L720 705L735 705L735 720L750 720L750 705L765 705L765 720L780 720L780 705L795 705L795 720L810 720L810 705L825 705L825 720L840 720L840 705L825 705L825 690L840 690L840 675L825 675L825 660L840 660L840 645L825 645L825 630L840 630L840 615L825 615L825 600L840 600L840 585L825 585L825 570L840 570L840 555L825 555L825 540L840 540L840 525L825 525L825 510L840 510L840 495L825 495L825 480L840 480L840 465L825 465L825 450L840 450L840 435L825 435L825 420L840 420L840 405L825 405L825 390L840 390L840 375L825 375L825 360L840 360L840 345L825 345L825 330L840 330L840 315L825 315L825 300L840 300L840 285L825 285L825 270L840 270L840 255L825 255L825 240L840 240L840 225L825 225L825 210L840 210L840 195L825 195L825 180L840 180L840 165L825 165L825 150L840 150L840 135L825 135L825 120L840 120L840 105L825 105L825 90L810 90L810 105L795 105L795 90L780 90L780 105L765 105L765 90L750 90L750 105L735 105L735 90L720 90L720 105L705 105L705 90L690 90L690 105L675 105L675 90L660 90L660 105L645 105L645 90L630 90L630 105L615 105L615 90L600 90L600 105L585 105L585 90L570 90L570 105L555 105L555 90L540 90L540 105L525 105L525 90L510 90L510 105L495 105L495 90L480 90L480 105L465 105L465 90L450 90L450 105L435 105L435 90L420 90L420 105L405 105L405 90L390 90L390 105L375 105L375 90L360 90L360 105L345 105L345 90L330 90L330 105L315 105L315 90L300 90L300 105L285 105L285 90L270 90L270 105L255 105L255 90L240 90L240 105L225 105L225 90L210 90L210 105L195 105L195 90L180 90L180 105L165 105L165 90L150 90L150 105L135 105L135 90L120 90L120 105L105 105L105 90L90 90z"/>
<path style="fill:#e7e7e7; stroke:none;" d="M915 90L915 105L920 105L920 90L915 90M0 105L0 120L15 120L15 105L0 105M120 105L120 120L105 120L105 135L120 135L120 150L105 150L105 165L120 165L120 180L105 180L105 195L120 195L120 210L105 210L105 225L120 225L120 240L105 240L105 255L120 255L120 270L105 270L105 285L120 285L120 300L105 300L105 315L120 315L120 330L105 330L105 345L120 345L120 360L105 360L105 375L120 375L120 390L105 390L105 405L120 405L120 420L105 420L105 435L120 435L120 450L105 450L105 465L120 465L120 480L105 480L105 495L120 495L120 510L105 510L105 525L120 525L120 540L105 540L105 555L120 555L120 570L105 570L105 585L120 585L120 600L105 600L105 615L120 615L120 630L105 630L105 645L120 645L120 660L105 660L105 675L120 675L120 690L105 690L105 705L120 705L120 690L135 690L135 705L150 705L150 690L165 690L165 705L180 705L180 690L195 690L195 705L210 705L210 690L225 690L225 705L240 705L240 690L255 690L255 705L270 705L270 690L285 690L285 705L300 705L300 690L315 690L315 705L330 705L330 690L345 690L345 705L360 705L360 690L375 690L375 705L390 705L390 690L405 690L405 705L420 705L420 690L435 690L435 705L450 705L450 690L465 690L465 705L480 705L480 690L495 690L495 705L510 705L510 690L525 690L525 705L540 705L540 690L555 690L555 705L570 705L570 690L585 690L585 705L600 705L600 690L615 690L615 705L630 705L630 690L645 690L645 705L660 705L660 690L675 690L675 705L690 705L690 690L705 690L705 705L720 705L720 690L735 690L735 705L750 705L750 690L765 690L765 705L780 705L780 690L795 690L795 705L810 705L810 690L825 690L825 675L810 675L810 660L825 660L825 645L810 645L810 630L825 630L825 615L810 615L810 600L825 600L825 585L810 585L810 570L825 570L825 555L810 555L810 540L825 540L825 525L810 525L810 510L825 510L825 495L810 495L810 480L825 480L825 465L810 465L810 450L825 450L825 435L810 435L810 420L825 420L825 405L810 405L810 390L825 390L825 375L810 375L810 360L825 360L825 345L810 345L810 330L825 330L825 315L810 315L810 300L825 300L825 285L810 285L810 270L825 270L825 255L810 255L810 240L825 240L825 225L810 225L810 210L825 210L825 195L810 195L810 180L825 180L825 165L810 165L810 150L825 150L825 135L810 135L810 120L825 120L825 105L810 105L810 120L795 120L795 105L780 105L780 120L765 120L765 105L750 105L750 120L735 120L735 105L720 105L720 120L705 120L705 105L690 105L690 120L675 120L675 105L660 105L660 120L645 120L645 105L630 105L630 120L615 120L615 105L600 105L600 120L585 120L585 105L570 105L570 120L555 120L555 105L540 105L540 120L525 120L525 105L510 105L510 120L495 120L495 105L480 105L480 120L465 120L465 105L450 105L450 120L435 120L435 105L420 105L420 120L405 120L405 105L390 105L390 120L375 120L375 105L360 105L360 120L345 120L345 105L330 105L330 120L315 120L315 105L300 105L300 120L285 120L285 105L270 105L270 120L255 120L255 105L240 105L240 120L225 120L225 105L210 105L210 120L195 120L195 105L180 105L180 120L165 120L165 105L150 105L150 120L135 120L135 105L120 105z"/>
<path style="fill:#ffffff; stroke:none;" d="M120 120L120 135L135 135L135 150L120 150L120 165L135 165L135 180L120 180L120 195L135 195L135 210L120 210L120 225L135 225L135 240L120 240L120 255L135 255L135 270L120 270L120 285L135 285L135 300L120 300L120 315L135 315L135 330L120 330L120 345L135 345L135 360L120 360L120 375L135 375L135 390L120 390L120 405L135 405L135 420L120 420L120 435L135 435L135 450L120 450L120 465L135 465L135 480L120 480L120 495L135 495L135 510L120 510L120 525L135 525L135 540L120 540L120 555L135 555L135 570L120 570L120 585L135 585L135 600L120 600L120 615L135 615L135 630L120 630L120 645L135 645L135 660L120 660L120 675L135 675L135 690L150 690L150 675L165 675L165 690L180 690L180 675L195 675L195 690L210 690L210 675L225 675L225 690L240 690L240 675L255 675L255 690L270 690L270 675L285 675L285 690L300 690L300 675L315 675L315 690L330 690L330 675L345 675L345 690L360 690L360 675L375 675L375 690L390 690L390 675L405 675L405 690L420 690L420 675L435 675L435 690L450 690L450 675L465 675L465 690L480 690L480 675L495 675L495 690L510 690L510 675L525 675L525 690L540 690L540 675L555 675L555 690L570 690L570 675L585 675L585 690L600 690L600 675L615 675L615 690L630 690L630 675L645 675L645 690L660 690L660 675L675 675L675 690L690 690L690 675L705 675L705 690L720 690L720 675L735 675L735 690L750 690L750 675L765 675L765 690L780 690L780 675L795 675L795 690L810 690L810 675L795 675L795 660L810 660L810 645L795 645L795 630L810 630L810 615L795 615L795 600L810 600L810 585L795 585L795 570L810 570L810 555L795 555L795 540L810 540L810 525L795 525L795 510L810 510L810 495L795 495L795 480L810 480L810 465L795 465L795 450L810 450L810 435L795 435L795 420L810 420L810 405L795 405L795 390L810 390L810 375L795 375L795 360L810 360L810 345L795 345L795 330L810 330L810 315L795 315L795 300L810 300L810 285L795 285L795 270L810 270L810 255L795 255L795 240L810 240L810 225L795 225L795 210L810 210L810 195L795 195L795 180L810 180L810 165L795 165L795 150L810 150L810 135L795 135L795 120L780 120L780 135L765 135L765 120L750 120L750 135L735 135L735 120L720 120L720 135L705 135L705 120L690 120L690 135L675 135L675 120L660 120L660 135L645 135L645 120L630 120L630 135L615 135L615 120L600 120L600 135L585 135L585 120L570 120L570 135L555 135L555 120L540 120L540 135L525 135L525 120L510 120L510 135L495 135L495 120L480 120L480 135L465 135L465 120L450 120L450 135L435 135L435 120L420 120L420 135L405 135L405 120L390 120L390 135L375 135L375 120L360 120L360 135L345 135L345 120L330 120L330 135L315 135L315 120L300 120L300 135L285 135L285 120L270 120L270 135L255 135L255 120L240 120L240 135L225 135L225 120L210 120L210 135L195 135L195 120L180 120L180 135L165 135L165 120L150 120L150 135L135 135L135 120L120 120z"/>
<path style="fill:#e7e7e7; stroke:none;" d="M915 120L915 135L920 135L920 120L915 120M0 135L0 150L15 150L15 135L0 135M150 135L150 150L135 150L135 165L150 165L150 180L135 180L135 195L150 195L150 210L135 210L135 225L150 225L150 240L135 240L135 255L150 255L150 270L135 270L135 285L150 285L150 300L135 300L135 315L150 315L150 330L135 330L135 345L150 345L150 360L135 360L135 375L150 375L150 390L135 390L135 405L150 405L150 420L135 420L135 435L150 435L150 450L135 450L135 465L150 465L150 480L135 480L135 495L150 495L150 510L135 510L135 525L150 525L150 540L135 540L135 555L150 555L150 570L135 570L135 585L150 585L150 600L135 600L135 615L150 615L150 630L135 630L135 645L150 645L150 660L135 660L135 675L150 675L150 660L165 660L165 675L180 675L180 660L195 660L195 675L210 675L210 660L225 660L225 675L240 675L240 660L255 660L255 675L270 675L270 660L285 660L285 675L300 675L300 660L315 660L315 675L330 675L330 660L345 660L345 675L360 675L360 660L375 660L375 675L390 675L390 660L405 660L405 675L420 675L420 660L435 660L435 675L450 675L450 660L465 660L465 675L480 675L480 660L495 660L495 675L510 675L510 660L525 660L525 675L540 675L540 660L555 660L555 675L570 675L570 660L585 660L585 675L600 675L600 660L615 660L615 675L630 675L630 660L645 660L645 675L660 675L660 660L675 660L675 675L690 675L690 660L705 660L705 675L720 675L720 660L735 660L735 675L750 675L750 660L765 660L765 675L780 675L780 660L795 660L795 645L780 645L780 630L795 630L795 615L780 615L780 600L795 600L795 585L780 585L780 570L795 570L795 555L780 555L780 540L795 540L795 525L780 525L780 510L795 510L795 495L780 495L780 480L795 480L795 465L780 465L780 450L795 450L795 435L780 435L780 420L795 420L795 405L780 405L780 390L795 390L795 375L780 375L780 360L795 360L795 345L780 345L780 330L795 330L795 315L780 315L780 300L795 300L795 285L780 285L780 270L795 270L795 255L780 255L780 240L795 240L795 225L780 225L780 210L795 210L795 195L780 195L780 180L795 180L795 165L780 165L780 150L795 150L795 135L780 135L780 150L765 150L765 135L750 135L750 150L735 150L735 135L720 135L720 150L705 150L705 135L690 135L690 150L675 150L675 135L660 135L660 150L645 150L645 135L630 135L630 150L615 150L615 135L600 135L600 150L585 150L585 135L570 135L570 150L555 150L555 135L540 135L540 150L525 150L525 135L510 135L510 150L495 150L495 135L480 135L480 150L465 150L465 135L450 135L450 150L435 150L435 135L420 135L420 150L405 150L405 135L390 135L390 150L375 150L375 135L360 135L360 150L345 150L345 135L330 135L330 150L315 150L315 135L300 135L300 150L285 150L285 135L270 135L270 150L255 150L255 135L240 135L240 150L225 150L225 135L210 135L210 150L195 150L195 135L180 135L180 150L165 150L165 135L150 135z"/>
<path style="fill:#ffffff; stroke:none;" d="M150 150L150 165L165 165L165 180L150 180L150 195L165 195L165 210L150 210L150 225L165 225L165 240L150 240L150 255L165 255L165 270L150 270L150 285L165 285L165 300L150 300L150 315L165 315L165 330L150 330L150 345L165 345L165 360L150 360L150 375L165 375L165 390L150 390L150 405L165 405L165 420L150 420L150 435L165 435L165 450L150 450L150 465L165 465L165 480L150 480L150 495L165 495L165 510L150 510L150 525L165 525L165 540L150 540L150 555L165 555L165 570L150 570L150 585L165 585L165 600L150 600L150 615L165 615L165 630L150 630L150 645L165 645L165 660L180 660L180 645L195 645L195 660L210 660L210 645L225 645L225 660L240 660L240 645L255 645L255 660L270 660L270 645L285 645L285 660L300 660L300 645L315 645L315 660L330 660L330 645L345 645L345 660L360 660L360 645L375 645L375 660L390 660L390 645L405 645L405 660L420 660L420 645L435 645L435 660L450 660L450 645L465 645L465 660L480 660L480 645L495 645L495 660L510 660L510 645L525 645L525 660L540 660L540 645L555 645L555 660L570 660L570 645L585 645L585 660L600 660L600 645L615 645L615 660L630 660L630 645L645 645L645 660L660 660L660 645L675 645L675 660L690 660L690 645L705 645L705 660L720 660L720 645L735 645L735 660L750 660L750 645L765 645L765 660L780 660L780 645L765 645L765 630L780 630L780 615L765 615L765 600L780 600L780 585L765 585L765 570L780 570L780 555L765 555L765 540L780 540L780 525L765 525L765 510L780 510L780 495L765 495L765 480L780 480L780 465L765 465L765 450L780 450L780 435L765 435L765 420L780 420L780 405L765 405L765 390L780 390L780 375L765 375L765 360L780 360L780 345L765 345L765 330L780 330L780 315L765 315L765 300L780 300L780 285L765 285L765 270L780 270L780 255L765 255L765 240L780 240L780 225L765 225L765 210L780 210L780 195L765 195L765 180L780 180L780 165L765 165L765 150L750 150L750 165L735 165L735 150L720 150L720 165L705 165L705 150L690 150L690 165L675 165L675 150L660 150L660 165L645 165L645 150L630 150L630 165L615 165L615 150L600 150L600 165L585 165L585 150L570 150L570 165L555 165L555 150L540 150L540 165L525 165L525 150L510 150L510 165L495 165L495 150L480 150L480 165L465 165L465 150L450 150L450 165L435 165L435 150L420 150L420 165L405 165L405 150L390 150L390 165L375 165L375 150L360 150L360 165L345 165L345 150L330 150L330 165L315 165L315 150L300 150L300 165L285 165L285 150L270 150L270 165L255 165L255 150L240 150L240 165L225 165L225 150L210 150L210 165L195 165L195 150L180 150L180 165L165 165L165 150L150 150z"/>
<path style="fill:#e7e7e7; stroke:none;" d="M915 150L915 165L920 165L920 150L915 150M0 165L0 180L15 180L15 165L0 165M180 165L180 180L165 180L165 195L180 195L180 210L165 210L165 225L180 225L180 240L165 240L165 255L180 255L180 270L165 270L165 285L180 285L180 300L165 300L165 315L180 315L180 330L165 330L165 345L180 345L180 360L165 360L165 375L180 375L180 390L165 390L165 405L180 405L180 420L165 420L165 435L180 435L180 450L165 450L165 465L180 465L180 480L165 480L165 495L180 495L180 510L165 510L165 525L180 525L180 540L165 540L165 555L180 555L180 570L165 570L165 585L180 585L180 600L165 600L165 615L180 615L180 630L165 630L165 645L180 645L180 630L195 630L195 645L210 645L210 630L225 630L225 645L240 645L240 630L255 630L255 645L270 645L270 630L285 630L285 645L300 645L300 630L315 630L315 645L330 645L330 630L345 630L345 645L360 645L360 630L375 630L375 645L390 645L390 630L405 630L405 645L420 645L420 630L435 630L435 645L450 645L450 630L465 630L465 645L480 645L480 630L495 630L495 645L510 645L510 630L525 630L525 645L540 645L540 630L555 630L555 645L570 645L570 630L585 630L585 645L600 645L600 630L615 630L615 645L630 645L630 630L645 630L645 645L660 645L660 630L675 630L675 645L690 645L690 630L705 630L705 645L720 645L720 630L735 630L735 645L750 645L750 630L765 630L765 615L750 615L750 600L765 600L765 585L750 585L750 570L765 570L765 555L750 555L750 540L765 540L765 525L750 525L750 510L765 510L765 495L750 495L750 480L765 480L765 465L750 465L750 450L765 450L765 435L750 435L750 420L765 420L765 405L750 405L750 390L765 390L765 375L750 375L750 360L765 360L765 345L750 345L750 330L765 330L765 315L750 315L750 300L765 300L765 285L750 285L750 270L765 270L765 255L750 255L750 240L765 240L765 225L750 225L750 210L765 210L765 195L750 195L750 180L765 180L765 165L750 165L750 180L735 180L735 165L720 165L720 180L712 180L708 186C708.53 188.649 708.428 189.607 706 189C706.579 191.897 701.874 199.718 699 199L696 203L693 207L693 210L705 210L705 225L690 225L690 215L687 215L684 219L682 225L690 225L690 240L675 240L675 232L674 232L672 238L669 238L675 240L675 255C669.321 255 663.372 256.127 659 252L658 252L658 255L660 270L645 270L645 285L632 284L630 300L619 300L618 301L615 315L607 314L602 320L601 321L600 330L591 333L590 334L587 341L583 343L585 345L579 347L578 348L574 356L567 364L556 373L570 375L570 390L555 390L555 377L554 377L543 390L555 390L555 405L540 405L540 392L539 392L525 408L540 405L540 420L525 420L525 410L511 423L525 420L525 435L510 435L510 426L501 435L510 435L510 450L495 450L495 442L487 450L495 450L495 465L480 465L480 456L471 465L480 465L480 480L465 480L463 469L463 472L457 474L454 476L451 478L451 479L465 480L465 495L450 495L450 481C442.152 483.261 435.105 486.128 435 495L420 495L420 510L405 510L405 495L414 495L413 489L411 490L412 487L410 484L408 481L406 478L399 473L388 459L387 458L383 455L380 456L382 450L375 450L375 435L390 437L391 437L390 420L402 418C407.118 417.423 405 409.173 405 405C416.297 404.999 419.999 401.297 420 390C427.061 390 433.059 389.649 438 384L435 386L435 375C448.725 375 450 373.865 450 360C454.392 360 463.831 358.677 463 362L464 362L465 345L480 345L480 330C484.913 330 492.041 328.436 495 333L499 332L495 330L495 315L510 315L510 320L516 318L516 315L510 315L510 300L525 300L525 310L526 310L526 307L532 305L535 301L535 300L525 300L525 285L540 285L541 297L542 297L547 293L551 290L552 289L551 287L554 286L554 285L540 285L540 270L555 270L555 286L556 286L556 283L561 282L566 278L570 275L570 270L579 268L580 267L579 265L584 264L585 255C596.023 254.991 599.999 250.818 600 240C613.469 240 615 238.404 615 225L630 227L633 227L633 226C628.873 221.628 630 215.679 630 210L645 210L645 216L648 216L651 214L653 211L653 210L645 210L645 195L660 195L661 206L662 206L665 204L669 201L672 199L674 196L674 195L660 195L660 180L675 180L675 194L679 194L682 192L685 190L688 188L691 186L690 180L702 179L705 177L705 165L690 165L690 180L675 180L675 165L660 165L660 180L645 180L645 165L630 165L630 180L615 180L615 165L600 165L600 180L585 180L585 165L570 165L570 180L555 180L555 165L540 165L540 180L525 180L525 165L510 165L510 180L495 180L495 165L480 165L480 180L465 180L465 165L450 165L450 180L435 180L435 165L420 165L420 180L405 180L405 165L390 165L390 180L375 180L375 165L360 165L360 180L345 180L345 165L330 165L330 180L315 180L315 165L300 165L300 180L285 180L285 165L270 165L270 180L255 180L255 165L240 165L240 180L225 180L225 165L210 165L210 180L195 180L195 165L180 165M712 172L713 173L712 172z"/>
<path style="fill:#7b7b7b; stroke:none;" d="M713 172L714 173L713 172z"/>
<path style="fill:#010101; stroke:none;" d="M416 496C453.701 484.069 481.61 453.639 508.039 426C558.119 373.627 605.282 318.4 650.803 262C666.7 242.304 682.604 222.526 697.424 202C704.176 192.649 712.752 183.275 716 172C703.952 174.862 693.094 183.799 683 190.656C664.019 203.549 645.242 216.843 627 230.765C567.742 275.994 509.431 321.83 453 370.576C431.96 388.751 409.086 407.989 394.601 432C391.273 437.517 383.527 446.482 383.017 452.961C382.636 457.806 390.939 462.181 393.985 465.09C402.877 473.576 411.125 484.686 416 496z"/>
<path style="fill:#e7e7e7; stroke:none;" d="M710 173L711 174L710 173M708 174L709 175L708 174z"/>
<path style="fill:#7b7b7b; stroke:none;" d="M715 174L716 175L715 174z"/>
<path style="fill:#ffffff; stroke:none;" d="M703 176L701 177L701 178L703 176z"/>
<path style="fill:#7b7b7b; stroke:none;" d="M714 176L715 177L714 176M703 177L704 178L703 177z"/>
<path style="fill:#ffffff; stroke:none;" d="M700 178L690 180L690 185L701 179L700 178z"/>
<path style="fill:#7b7b7b; stroke:none;" d="M713 178L714 179L713 178M700 179L701 180L700 179z"/>
<path style="fill:#ffffff; stroke:none;" d="M180 180L180 195L195 195L195 210L180 210L180 225L195 225L195 240L180 240L180 255L195 255L195 270L180 270L180 285L195 285L195 300L180 300L180 315L195 315L195 330L180 330L180 345L195 345L195 360L180 360L180 375L195 375L195 390L180 390L180 405L195 405L195 420L180 420L180 435L195 435L195 450L180 450L180 465L195 465L195 480L180 480L180 495L195 495L195 510L180 510L180 525L195 525L195 540L180 540L180 555L195 555L195 570L180 570L180 585L195 585L195 600L180 600L180 615L195 615L195 630L210 630C210 625.087 208.436 617.959 213 615L213 614L208 613L208 614L210 614L210 615L195 615L195 600L210 600L207 609L207 610C216.79 608.309 225.657 601.245 232.985 594.866C251.324 578.904 266.154 557.049 274 534L273 534L271 540L270 540L270 525L277 525L274 533L275 533C285.416 507.983 304.605 482.988 331 474L330 465L345 465L345 470L341 470L341 471C363.833 471 377.183 483.216 389.644 502C393.577 507.928 399.45 516.575 398.294 524C391.294 568.964 356.495 617.599 309 624L309 625L315 624L315 630L330 630C330.001 619.472 334.107 615.255 345 615L345 630L360 630L360 615L375 615L375 630L390 630L390 615L405 615L405 630L420 630L420 615L435 615L435 630L450 630L450 615L465 615L465 630L480 630L480 615L495 615L495 630L510 630L510 615L525 615L525 630L540 630L540 615L555 615L555 630L570 630L570 615L585 615L585 630L600 630L600 615L615 615L615 630L630 630L630 615L645 615L645 630L660 630L660 615L675 615L675 630L690 630L690 615L705 615L705 630L720 630L720 615L735 615L735 630L750 630L750 615L735 615L735 600L750 600L750 585L735 585L735 570L750 570L750 555L735 555L735 540L750 540L750 525L735 525L735 510L750 510L750 495L735 495L735 480L750 480L750 465L735 465L735 450L750 450L750 435L735 435L735 420L750 420L750 405L735 405L735 390L750 390L750 375L735 375L735 360L750 360L750 345L735 345L735 330L750 330L750 315L735 315L735 300L750 300L750 285L735 285L735 270L750 270L750 255L735 255L735 240L750 240L750 225L735 225L735 210L750 210L750 195L735 195L735 180L720 180L720 195L705 195L705 210L720 210L720 225L705 225L705 240L690 240L690 255L675 255L675 270L660 270L660 285L645 285L645 300L630 300L630 315L615 315L615 330L600 330L600 345L585 345L585 360L570 360L570 375L585 375L585 390L570 390L570 405L555 405L555 420L540 420L540 435L525 435L525 450L510 450L510 465L495 465L495 480L480 480L480 495L465 495L465 510L450 510L450 495L435 495L435 510L420 510L420 525L405 525L405 510C395.48 509.993 390.532 504.829 390 495L405 495L405 480L390 480L390 465L375 465L375 450L360 450L360 435L375 435L375 420L390 420L390 405L405 405L405 390L420 390L420 375L435 375L435 360L450 360L450 345L465 345L465 330L480 330L480 315L495 315L495 300L510 300L510 285L525 285L525 270L540 270L540 255L555 255L555 270L570 270L570 255L585 255L585 240L600 240L600 225L615 225L615 210L630 210L630 195L645 195L645 180L630 180L630 195L615 195L615 180L600 180L600 195L585 195L585 180L570 180L570 195L555 195L555 180L540 180L540 195L525 195L525 180L510 180L510 195L495 195L495 180L480 180L480 195L465 195L465 180L450 180L450 195L435 195L435 180L420 180L420 195L405 195L405 180L390 180L390 195L375 195L375 180L360 180L360 195L345 195L345 180L330 180L330 195L315 195L315 180L300 180L300 195L285 195L285 180L270 180L270 195L255 195L255 180L240 180L240 195L225 195L225 180L210 180L210 195L195 195L195 180L180 180M660 180L660 195L674 195L674 196L671 197L671 198L678 193L675 194L675 180L660 180z"/>
<path style="fill:#7b7b7b; stroke:none;" d="M698 180L699 181L698 180z"/>
<path style="fill:#e7e7e7; stroke:none;" d="M915 180L915 195L920 195L920 180L915 180z"/>
<path style="fill:#ffffff; stroke:none;" d="M712 181L713 182L712 181z"/>
<path style="fill:#7b7b7b; stroke:none;" d="M695 182L696 183L695 182z"/>
<path style="fill:#ffffff; stroke:none;" d="M711 182L709 187L710 187L711 182z"/>
<path style="fill:#e7e7e7; stroke:none;" d="M693 183L694 184L693 183z"/>
<path style="fill:#7b7b7b; stroke:none;" d="M710 183L711 184L710 183M692 184L693 185L692 184z"/>
<path style="fill:#ffffff; stroke:none;" d="M689 185L690 186L689 185M687.667 186.333L688.333 186.667L687.667 186.333M686 187L684 188L684 189L686 187M708 187L709 188L708 187z"/>
<path style="fill:#7b7b7b; stroke:none;" d="M686 188L687 189L686 188z"/>
<path style="fill:#ffffff; stroke:none;" d="M707.333 188.667L707.667 189.333L707.333 188.667M683 189L681 190L681 191L683 189z"/>
<path style="fill:#7b7b7b; stroke:none;" d="M683 190L684 191L683 190M705 190L706 191L705 190z"/>
<path style="fill:#ffffff; stroke:none;" d="M706 190L707 191L706 190M680 191L678 192L678 193L680 191M705 191L700 200L701 200L705 191z"/>
<path style="fill:#7b7b7b; stroke:none;" d="M680 192L681 193L680 192M703 193L704 194L703 193M677 194L678 195L677 194z"/>
<path style="fill:#e7e7e7; stroke:none;" d="M0 195L0 210L15 210L15 195L0 195M210 195L210 210L195 210L195 225L210 225L210 240L195 240L195 255L210 255L210 270L195 270L195 285L210 285L210 300L195 300L195 315L210 315L210 330L195 330L195 345L210 345L210 360L195 360L195 375L210 375L210 390L195 390L195 405L210 405L210 420L195 420L195 435L210 435L210 450L195 450L195 465L210 465L210 480L195 480L195 495L210 495L210 510L195 510L195 525L210 525L210 540L195 540L195 555L210 555L210 570L195 570L195 585L210 585L210 600L225 600L225 585L241 586L240 570C253.534 570 255 568.534 255 555C264.897 554.965 267.562 548.912 270 540L255 540L255 525L270 525L270 510L286 511L285 495C298.05 495 300 493.05 300 480L315 480L315 465L330 465L330 450L345 450L345 465L360 465C360.305 474.374 368.552 475.645 374.29 481.47C379.164 486.418 382.642 493.855 390 495L390 480L375 480L375 465L360 465L360 450L345 450L345 435L360 435L360 420L375 420L375 405L390 405L390 390L405 390L405 375L420 375L420 360L435 360L435 345L450 345L450 330L465 330L465 315L480 315L480 300L495 300L495 285L510 285L510 270L525 270L525 255L540 255L540 240L555 240L555 255L570 255L570 240L585 240L585 225L600 225L600 210L615 210L615 195L600 195L600 210L585 210L585 195L570 195L570 210L555 210L555 195L540 195L540 210L525 210L525 195L510 195L510 210L495 210L495 195L480 195L480 210L465 210L465 195L450 195L450 210L435 210L435 195L420 195L420 210L405 210L405 195L390 195L390 210L375 210L375 195L360 195L360 210L345 210L345 195L330 195L330 210L315 210L315 195L300 195L300 210L285 210L285 195L270 195L270 210L255 210L255 195L240 195L240 210L225 210L225 195L210 195z"/>
<path style="fill:#ffffff; stroke:none;" d="M645 195L645 210L653 210L653 211L650 212L650 213C659.562 208.978 660.006 204.432 660 195L645 195z"/>
<path style="fill:#e7e7e7; stroke:none;" d="M720 195L720 210L735 210L735 195L720 195z"/>
<path style="fill:#7b7b7b; stroke:none;" d="M674 196L675 197L674 196M701 196L702 197L701 196M700 197L701 198L700 197z"/>
<path style="fill:#ffffff; stroke:none;" d="M670 198L668 199L668 200L670 198z"/>
<path style="fill:#7b7b7b; stroke:none;" d="M670 199L671 200L670 199z"/>
<path style="fill:#ffffff; stroke:none;" d="M667 200L664 202L664 203L667 200z"/>
<path style="fill:#7b7b7b; stroke:none;" d="M698 200L697 202L698 200z"/>
<path style="fill:#ffffff; stroke:none;" d="M699 200L700 201L699 200z"/>
<path style="fill:#7b7b7b; stroke:none;" d="M667 201L668 202L667 201z"/>
<path style="fill:#ffffff; stroke:none;" d="M698 201L699 202L698 201M697.333 202.667L697.667 203.333L697.333 202.667M663 203L664 204L663 203M661.667 204.333L662.333 204.667L661.667 204.333z"/>
<path style="fill:#7b7b7b; stroke:none;" d="M695 204L696 205L695 204z"/>
<path style="fill:#ffffff; stroke:none;" d="M696 204L697 205L696 204M695 205L696 206L695 205z"/>
<path style="fill:#7b7b7b; stroke:none;" d="M660 206L661 207L660 206z"/>
<path style="fill:#ffffff; stroke:none;" d="M694.333 206.667L694.667 207.333L694.333 206.667z"/>
<path style="fill:#e7e7e7; stroke:none;" d="M657 208L658 209L657 208z"/>
<path style="fill:#7b7b7b; stroke:none;" d="M692 208L693 209L692 208z"/>
<path style="fill:#ffffff; stroke:none;" d="M693 208L694 209L693 208z"/>
<path style="fill:#7b7b7b; stroke:none;" d="M656 209L657 210L656 209z"/>
<path style="fill:#ffffff; stroke:none;" d="M692 209L688 216C691.441 216 690 222.122 690 225L705 225L705 210L692 209M210 210L210 225L225 225L225 240L210 240L210 255L225 255L225 270L210 270L210 285L225 285L225 300L210 300L210 315L225 315L225 330L210 330L210 345L225 345L225 360L210 360L210 375L225 375L225 390L210 390L210 405L225 405L225 420L210 420L210 435L225 435L225 450L210 450L210 465L225 465L225 480L210 480L210 495L225 495L225 510L210 510L210 525L225 525L225 540L210 540L210 555L225 555L225 570L210 570L210 585L225 585L225 570L240 570L240 555L255 555L255 540L240 540L240 525L255 525L255 510L270 510L270 495L285 495L285 480L300 480L300 465L315 465L315 450L330 450L330 435L345 435L345 420L360 420L360 405L375 405L375 390L390 390L390 375L405 375L405 360L420 360L420 345L435 345L435 330L450 330L450 315L465 315L465 300L480 300L480 285L495 285L495 270L510 270L510 255L525 255L525 240L540 240L540 225L555 225L555 240L570 240L570 225L585 225L585 210L570 210L570 225L555 225L555 210L540 210L540 225L525 225L525 210L510 210L510 225L495 225L495 210L480 210L480 225L465 225L465 210L450 210L450 225L435 225L435 210L420 210L420 225L405 225L405 210L390 210L390 225L375 225L375 210L360 210L360 225L345 225L345 210L330 210L330 225L315 225L315 210L300 210L300 225L285 225L285 210L270 210L270 225L255 225L255 210L240 210L240 225L225 225L225 210L210 210M630 210C630 213.487 628.516 221.476 631.028 224.203C634.732 228.225 644.818 217.68 647 215L645 210L630 210z"/>
<path style="fill:#e7e7e7; stroke:none;" d="M654 210L655 211L654 210M915 210L915 225L920 225L920 210L915 210z"/>
<path style="fill:#7b7b7b; stroke:none;" d="M653 211L654 212L653 211z"/>
<path style="fill:#e7e7e7; stroke:none;" d="M690 211L691 212L690 211z"/>
<path style="fill:#7b7b7b; stroke:none;" d="M689 212L690 213L689 212z"/>
<path style="fill:#ffffff; stroke:none;" d="M649 213L647 214L647 215L649 213z"/>
<path style="fill:#7b7b7b; stroke:none;" d="M649 214L650 215L649 214M646 216L647 217L646 216M686 216L685 218L686 216z"/>
<path style="fill:#ffffff; stroke:none;" d="M687 216L688 217L687 216M686 217L687 218L686 217z"/>
<path style="fill:#e7e7e7; stroke:none;" d="M643 218L644 219L643 218z"/>
<path style="fill:#ffffff; stroke:none;" d="M685.333 218.667L685.667 219.333L685.333 218.667z"/>
<path style="fill:#7b7b7b; stroke:none;" d="M642 219L643 220L642 219M683 220L682 222L683 220z"/>
<path style="fill:#ffffff; stroke:none;" d="M684 220L685 221L684 220z"/>
<path style="fill:#e7e7e7; stroke:none;" d="M639 221L640 222L639 221z"/>
<path style="fill:#ffffff; stroke:none;" d="M683 221L684 222L683 221z"/>
<path style="fill:#7b7b7b; stroke:none;" d="M638 222L639 223L638 222z"/>
<path style="fill:#ffffff; stroke:none;" d="M682 222C677.436 228.353 674.731 232.059 675 240L690 240L690 225L682 225L682 222z"/>
<path style="fill:#e7e7e7; stroke:none;" d="M635 224L636 225L635 224M680 224L681 225L680 224M0 225L0 240L15 240L15 225L0 225M240 225L240 240L225 240L225 255L240 255L240 270L225 270L225 285L240 285L240 300L225 300L225 315L240 315L240 330L225 330L225 345L240 345L240 360L225 360L225 375L240 375L240 390L225 390L225 405L240 405L240 420L225 420L225 435L240 435L240 450L225 450L225 465L240 465L240 480L225 480L225 495L240 495L240 510L225 510L225 525L240 525L240 510L255 510L255 495L270 495L270 480L285 480L285 465L300 465L300 450L315 450L315 435L330 435L330 420L345 420L345 405L360 405L360 390L375 390L375 375L390 375L390 360L405 360L405 345L420 345L420 330L435 330L435 315L450 315L450 300L465 300L465 285L480 285L480 270L495 270L495 255L510 255L510 240L525 240L525 225L510 225L510 240L495 240L495 225L480 225L480 240L465 240L465 225L450 225L450 240L435 240L435 225L420 225L420 240L405 240L405 225L390 225L390 240L375 240L375 225L360 225L360 240L345 240L345 225L330 225L330 240L315 240L315 225L300 225L300 240L285 240L285 225L270 225L270 240L255 240L255 225L240 225z"/>
<path style="fill:#ffffff; stroke:none;" d="M615 225C615 237.918 612.988 240 600 240C599.992 250.143 595.336 254.963 585 255L583 263L607 245.884L632 226L615 225z"/>
<path style="fill:#7b7b7b; stroke:none;" d="M679 225L680 226L679 225z"/>
<path style="fill:#e7e7e7; stroke:none;" d="M720 225L720 240L705 240L705 255L690 255L690 270L675 270L675 285L660 285L660 300L645 300L645 315L630 315L630 330L615 330L615 345L600 345L600 360L585 360L585 375L600 375L600 390L585 390L585 405L570 405L570 420L555 420L555 435L540 435L540 450L525 450L525 465L510 465L510 480L495 480L495 495L480 495L480 510L465 510L465 525L450 525L450 510L435 510L435 525L420 525L420 540L405 540L405 525L399 525L395 540L405 540L405 555L390 555L390 570C380.035 570.035 379.441 576.555 374.211 583.714C369.407 590.293 363.037 596.396 357 601.829C352.537 605.846 346.021 608.688 345 615L360 615L360 600L375 600L375 615L390 615L390 600L405 600L405 615L420 615L420 600L435 600L435 615L450 615L450 600L465 600L465 615L480 615L480 600L495 600L495 615L510 615L510 600L525 600L525 615L540 615L540 600L555 600L555 615L570 615L570 600L585 600L585 615L600 615L600 600L615 600L615 615L630 615L630 600L645 600L645 615L660 615L660 600L675 600L675 615L690 615L690 600L705 600L705 615L720 615L720 600L735 600L735 585L720 585L720 570L735 570L735 555L720 555L720 540L735 540L735 525L720 525L720 510L735 510L735 495L720 495L720 480L735 480L735 465L720 465L720 450L735 450L735 435L720 435L720 420L735 420L735 405L720 405L720 390L735 390L735 375L720 375L720 360L735 360L735 345L720 345L720 330L735 330L735 315L720 315L720 300L735 300L735 285L720 285L720 270L735 270L735 255L720 255L720 240L735 240L735 225L720 225z"/>
<path style="fill:#7b7b7b; stroke:none;" d="M631 227L632 228L631 227z"/>
<path style="fill:#e7e7e7; stroke:none;" d="M677 228L678 229L677 228M628 229L629 230L628 229z"/>
<path style="fill:#7b7b7b; stroke:none;" d="M676 229L677 230L676 229M627 230L628 231L627 230M675 230L676 231L675 230M626 231L627 232L626 231z"/>
<path style="fill:#e7e7e7; stroke:none;" d="M624 232L625 233L624 232z"/>
<path style="fill:#7b7b7b; stroke:none;" d="M623 233L624 234L623 233M672 234L673 235L672 234z"/>
<path style="fill:#ffffff; stroke:none;" d="M673 234L674 235L673 234z"/>
<path style="fill:#e7e7e7; stroke:none;" d="M620 235L621 236L620 235z"/>
<path style="fill:#ffffff; stroke:none;" d="M672 235L673 236L672 235z"/>
<path style="fill:#7b7b7b; stroke:none;" d="M619 236L620 237L619 236z"/>
<path style="fill:#ffffff; stroke:none;" d="M671.333 236.667L671.667 237.333L671.333 236.667z"/>
<path style="fill:#e7e7e7; stroke:none;" d="M616 238L617 239L616 238z"/>
<path style="fill:#ffffff; stroke:none;" d="M670 238L671 239L670 238z"/>
<path style="fill:#7b7b7b; stroke:none;" d="M615 239L616 240L615 239M668 239L669 240L668 239z"/>
<path style="fill:#ffffff; stroke:none;" d="M675 255L675 240C670.547 239.793 654.978 248.505 660.801 253.972C663.482 256.49 671.547 255 675 255M240 240L240 255L255 255L255 270L240 270L240 285L255 285L255 300L240 300L240 315L255 315L255 330L240 330L240 345L255 345L255 360L240 360L240 375L255 375L255 390L240 390L240 405L255 405L255 420L240 420L240 435L255 435L255 450L240 450L240 465L255 465L255 480L240 480L240 495L255 495L255 480L270 480L270 465L285 465L285 450L300 450L300 435L315 435L315 420L330 420L330 405L345 405L345 390L360 390L360 375L375 375L375 360L390 360L390 345L405 345L405 330L420 330L420 315L435 315L435 300L450 300L450 285L465 285L465 270L480 270L480 255L495 255L495 240L480 240L480 255L465 255L465 240L450 240L450 255L435 255L435 240L420 240L420 255L405 255L405 240L390 240L390 255L375 255L375 240L360 240L360 255L345 255L345 240L330 240L330 255L315 255L315 240L300 240L300 255L285 255L285 240L270 240L270 255L255 255L255 240L240 240z"/>
<path style="fill:#e7e7e7; stroke:none;" d="M915 240L915 255L920 255L920 240L915 240M612 241L613 242L612 241z"/>
<path style="fill:#7b7b7b; stroke:none;" d="M611 242L612 243L611 242z"/>
<path style="fill:#e7e7e7; stroke:none;" d="M665 243L666 244L665 243M608 244L609 245L608 244z"/>
<path style="fill:#7b7b7b; stroke:none;" d="M664 244L665 245L664 244M607 245L608 246L607 245z"/>
<path style="fill:#e7e7e7; stroke:none;" d="M604 247L605 248L604 247M662 247L663 248L662 247z"/>
<path style="fill:#7b7b7b; stroke:none;" d="M603 248L604 249L603 248M661 248L662 249L661 248M660 249L661 250L660 249M599 251L600 252L599 251M657 253L658 254L657 253z"/>
<path style="fill:#ffffff; stroke:none;" d="M658 253L659 254L658 253z"/>
<path style="fill:#7b7b7b; stroke:none;" d="M595 254L596 255L595 254z"/>
<path style="fill:#ffffff; stroke:none;" d="M633 285L645 285L645 270L660 270L658.436 255.497L651.25 261.001L633 285z"/>
<path style="fill:#e7e7e7; stroke:none;" d="M0 255L0 270L15 270L15 255L0 255M270 255L270 270L255 270L255 285L270 285L270 300L255 300L255 315L270 315L270 330L255 330L255 345L270 345L270 360L255 360L255 375L270 375L270 390L255 390L255 405L270 405L270 420L255 420L255 435L270 435L270 450L255 450L255 465L270 465L270 450L285 450L285 435L300 435L300 420L315 420L315 405L330 405L330 390L345 390L345 375L360 375L360 360L375 360L375 345L390 345L390 330L405 330L405 315L420 315L420 300L435 300L435 285L450 285L450 270L465 270L465 255L450 255L450 270L435 270L435 255L420 255L420 270L405 270L405 255L390 255L390 270L375 270L375 255L360 255L360 270L345 270L345 255L330 255L330 270L315 270L315 255L300 255L300 270L285 270L285 255L270 255z"/>
<path style="fill:#7b7b7b; stroke:none;" d="M594 255L595 256L594 255z"/>
<path style="fill:#ffffff; stroke:none;" d="M705 255L705 270L690 270L690 285L675 285L675 300L660 300L660 315L645 315L645 330L630 330L630 345L615 345L615 360L600 360L600 375L615 375L615 390L600 390L600 405L585 405L585 420L570 420L570 435L555 435L555 450L540 450L540 465L525 465L525 480L510 480L510 495L495 495L495 510L480 510L480 525L465 525L465 540L450 540L450 525L435 525L435 540L420 540L420 555L405 555L405 570L390 570L390 585L375 585L375 600L390 600L390 585L405 585L405 600L420 600L420 585L435 585L435 600L450 600L450 585L465 585L465 600L480 600L480 585L495 585L495 600L510 600L510 585L525 585L525 600L540 600L540 585L555 585L555 600L570 600L570 585L585 585L585 600L600 600L600 585L615 585L615 600L630 600L630 585L645 585L645 600L660 600L660 585L675 585L675 600L690 600L690 585L705 585L705 600L720 600L720 585L705 585L705 570L720 570L720 555L705 555L705 540L720 540L720 525L705 525L705 510L720 510L720 495L705 495L705 480L720 480L720 465L705 465L705 450L720 450L720 435L705 435L705 420L720 420L720 405L705 405L705 390L720 390L720 375L705 375L705 360L720 360L720 345L705 345L705 330L720 330L720 315L705 315L705 300L720 300L720 285L705 285L705 270L720 270L720 255L705 255z"/>
<path style="fill:#e7e7e7; stroke:none;" d="M591 257L592 258L591 257M654 257L655 258L654 257z"/>
<path style="fill:#7b7b7b; stroke:none;" d="M590 258L591 259L590 258M653 258L654 259L653 258M652 259L653 260L652 259z"/>
<path style="fill:#e7e7e7; stroke:none;" d="M587 260L588 261L587 260z"/>
<path style="fill:#7b7b7b; stroke:none;" d="M586 261L587 262L586 261z"/>
<path style="fill:#ffffff; stroke:none;" d="M582 263L579 265L579 266L582 263z"/>
<path style="fill:#7b7b7b; stroke:none;" d="M649 263L650 264L649 263M582 264L583 265L582 264M648 264L649 265L648 264M581 265L582 266L581 265z"/>
<path style="fill:#ffffff; stroke:none;" d="M578 266L579 267L578 266M577 267L570 270L569 274L577 267z"/>
<path style="fill:#7b7b7b; stroke:none;" d="M577 268L578 269L577 268z"/>
<path style="fill:#e7e7e7; stroke:none;" d="M645 268L646 269L645 268z"/>
<path style="fill:#7b7b7b; stroke:none;" d="M644 269L645 270L644 269z"/>
<path style="fill:#ffffff; stroke:none;" d="M270 270L270 285L285 285L285 300L270 300L270 315L285 315L285 330L270 330L270 345L285 345L285 360L270 360L270 375L285 375L285 390L270 390L270 405L285 405L285 420L270 420L270 435L285 435L285 420L300 420L300 405L315 405L315 390L330 390L330 375L345 375L345 360L360 360L360 345L375 345L375 330L390 330L390 315L405 315L405 300L420 300L420 285L435 285L435 270L420 270L420 285L405 285L405 270L390 270L390 285L375 285L375 270L360 270L360 285L345 285L345 270L330 270L330 285L315 285L315 270L300 270L300 285L285 285L285 270L270 270M540 270L540 285L554 285L554 286L551 287L551 288C557.27 284.766 555 276.158 555 270L540 270z"/>
<path style="fill:#e7e7e7; stroke:none;" d="M915 270L915 285L920 285L920 270L915 270M573 271L574 272L573 271z"/>
<path style="fill:#7b7b7b; stroke:none;" d="M572 272L573 273L572 272z"/>
<path style="fill:#e7e7e7; stroke:none;" d="M641 273L642 274L641 273z"/>
<path style="fill:#ffffff; stroke:none;" d="M568 274L565 276L565 277L568 274z"/>
<path style="fill:#7b7b7b; stroke:none;" d="M640 274L641 275L640 274M568 275L569 276L568 275M639 275L640 276L639 275M567 276L568 277L567 276z"/>
<path style="fill:#ffffff; stroke:none;" d="M564 277L560 280L560 281L564 277z"/>
<path style="fill:#7b7b7b; stroke:none;" d="M564 278L565 279L564 278M563 279L564 280L563 279z"/>
<path style="fill:#e7e7e7; stroke:none;" d="M636 279L637 280L636 279z"/>
<path style="fill:#7b7b7b; stroke:none;" d="M635 280L636 281L635 280z"/>
<path style="fill:#ffffff; stroke:none;" d="M559 281L556 283L556 284L559 281z"/>
<path style="fill:#7b7b7b; stroke:none;" d="M559 282L560 283L559 282M558 283L559 284L558 283z"/>
<path style="fill:#e7e7e7; stroke:none;" d="M0 285L0 300L15 300L15 285L0 285M300 285L300 300L285 300L285 315L300 315L300 330L285 330L285 345L300 345L300 360L285 360L285 375L300 375L300 390L285 390L285 405L300 405L300 390L315 390L315 375L330 375L330 360L345 360L345 345L360 345L360 330L375 330L375 315L390 315L390 300L405 300L405 285L390 285L390 300L375 300L375 285L360 285L360 300L345 300L345 285L330 285L330 300L315 300L315 285L300 285z"/>
<path style="fill:#ffffff; stroke:none;" d="M525 285L525 300L535 300L535 301L531 304C540.458 299.784 540.001 294.162 540 285L525 285z"/>
<path style="fill:#7b7b7b; stroke:none;" d="M631 285L630 287L631 285z"/>
<path style="fill:#ffffff; stroke:none;" d="M632 285L633 286L632 285z"/>
<path style="fill:#e7e7e7; stroke:none;" d="M690 285L690 300L675 300L675 315L660 315L660 330L645 330L645 345L630 345L630 360L615 360L615 375L630 375L630 390L615 390L615 405L600 405L600 420L585 420L585 435L570 435L570 450L555 450L555 465L540 465L540 480L525 480L525 495L510 495L510 510L495 510L495 525L480 525L480 540L465 540L465 555L450 555L450 540L435 540L435 555L420 555L420 570L405 570L405 585L420 585L420 570L435 570L435 585L450 585L450 570L465 570L465 585L480 585L480 570L495 570L495 585L510 585L510 570L525 570L525 585L540 585L540 570L555 570L555 585L570 585L570 570L585 570L585 585L600 585L600 570L615 570L615 585L630 585L630 570L645 570L645 585L660 585L660 570L675 570L675 585L690 585L690 570L705 570L705 555L690 555L690 540L705 540L705 525L690 525L690 510L705 510L705 495L690 495L690 480L705 480L705 465L690 465L690 450L705 450L705 435L690 435L690 420L705 420L705 405L690 405L690 390L705 390L705 375L690 375L690 360L705 360L705 345L690 345L690 330L705 330L705 315L690 315L690 300L705 300L705 285L690 285z"/>
<path style="fill:#7b7b7b; stroke:none;" d="M554 286L555 287L554 286z"/>
<path style="fill:#ffffff; stroke:none;" d="M631 286L632 287L631 286M630 287L620 301L630 300L630 287M550 288L551 289L550 288M549 289L546 291L546 292L549 289z"/>
<path style="fill:#7b7b7b; stroke:none;" d="M549 290L550 291L549 290z"/>
<path style="fill:#e7e7e7; stroke:none;" d="M627 290L628 291L627 290z"/>
<path style="fill:#7b7b7b; stroke:none;" d="M626 291L627 292L626 291z"/>
<path style="fill:#ffffff; stroke:none;" d="M545 292L541 295L541 296L545 292z"/>
<path style="fill:#7b7b7b; stroke:none;" d="M625 292L626 293L625 292M545 293L546 294L545 293M544 294L545 295L544 294z"/>
<path style="fill:#e7e7e7; stroke:none;" d="M622 296L623 297L622 296z"/>
<path style="fill:#7b7b7b; stroke:none;" d="M540 297L541 298L540 297M621 297L622 298L621 297M539 298L540 299L539 298z"/>
<path style="fill:#ffffff; stroke:none;" d="M300 300L300 315L315 315L315 330L300 330L300 345L315 345L315 360L300 360L300 375L315 375L315 360L330 360L330 345L345 345L345 330L360 330L360 315L375 315L375 300L360 300L360 315L345 315L345 300L330 300L330 315L315 315L315 300L300 300M510 300L510 315L515 317C523.508 313.208 525.065 308.671 525 300L510 300z"/>
<path style="fill:#e7e7e7; stroke:none;" d="M536 300L537 301L536 300M915 300L915 315L920 315L920 300L915 300z"/>
<path style="fill:#7b7b7b; stroke:none;" d="M535 301L536 302L535 301z"/>
<path style="fill:#ffffff; stroke:none;" d="M619 301L620 302L619 301z"/>
<path style="fill:#7b7b7b; stroke:none;" d="M534 302L535 303L534 302M617 302L616 304L617 302z"/>
<path style="fill:#ffffff; stroke:none;" d="M618 302L619 303L618 302M617 303L618 304L617 303M530 304L526 307L526 308L530 304M616 304L617 305L616 304z"/>
<path style="fill:#7b7b7b; stroke:none;" d="M530 305L531 306L530 305z"/>
<path style="fill:#ffffff; stroke:none;" d="M615 305L608 315L615 315L615 305z"/>
<path style="fill:#7b7b7b; stroke:none;" d="M529 306L530 307L529 306z"/>
<path style="fill:#e7e7e7; stroke:none;" d="M612 308L613 309L612 308z"/>
<path style="fill:#7b7b7b; stroke:none;" d="M611 309L612 310L611 309M524 310L525 311L524 310M610 310L611 311L610 310z"/>
<path style="fill:#e7e7e7; stroke:none;" d="M520 313L521 314L520 313z"/>
<path style="fill:#7b7b7b; stroke:none;" d="M519 314L520 315L519 314z"/>
<path style="fill:#e7e7e7; stroke:none;" d="M0 315L0 330L15 330L15 315L0 315M330 315L330 330L315 330L315 345L330 345L330 330L345 330L345 315L330 315z"/>
<path style="fill:#ffffff; stroke:none;" d="M495 315L495 330C502.735 330.854 510.571 322.79 515 317L510 320L510 315L495 315z"/>
<path style="fill:#7b7b7b; stroke:none;" d="M518 315L519 316L518 315M606 315L605 317L606 315z"/>
<path style="fill:#ffffff; stroke:none;" d="M607 315L608 316L607 315M675 315L675 330L660 330L660 345L645 345L645 360L630 360L630 375L645 375L645 390L630 390L630 405L615 405L615 420L600 420L600 435L585 435L585 450L570 450L570 465L555 465L555 480L540 480L540 495L525 495L525 510L510 510L510 525L495 525L495 540L480 540L480 555L465 555L465 570L480 570L480 555L495 555L495 570L510 570L510 555L525 555L525 570L540 570L540 555L555 555L555 570L570 570L570 555L585 555L585 570L600 570L600 555L615 555L615 570L630 570L630 555L645 555L645 570L660 570L660 555L675 555L675 570L690 570L690 555L675 555L675 540L690 540L690 525L675 525L675 510L690 510L690 495L675 495L675 480L690 480L690 465L675 465L675 450L690 450L690 435L675 435L675 420L690 420L690 405L675 405L675 390L690 390L690 375L675 375L675 360L690 360L690 345L675 345L675 330L690 330L690 315L675 315M606 316L607 317L606 316M605 317L606 318L605 317z"/>
<path style="fill:#7b7b7b; stroke:none;" d="M514 318L515 319L514 318z"/>
<path style="fill:#ffffff; stroke:none;" d="M604 318L603 321L604 318z"/>
<path style="fill:#7b7b7b; stroke:none;" d="M513 319L514 320L513 319z"/>
<path style="fill:#e7e7e7; stroke:none;" d="M510 321L511 322L510 321z"/>
<path style="fill:#ffffff; stroke:none;" d="M602 321L603 322L602 321z"/>
<path style="fill:#e7e7e7; stroke:none;" d="M509 322L510 323L509 322z"/>
<path style="fill:#7b7b7b; stroke:none;" d="M600 322L599 324L600 322z"/>
<path style="fill:#ffffff; stroke:none;" d="M601 322L602 323L601 322z"/>
<path style="fill:#7b7b7b; stroke:none;" d="M508 323L509 324L508 323z"/>
<path style="fill:#ffffff; stroke:none;" d="M600 323L601 324L600 323z"/>
<path style="fill:#7b7b7b; stroke:none;" d="M507 324L508 325L507 324z"/>
<path style="fill:#ffffff; stroke:none;" d="M599 324L592 334L593 334L600 330L599 324z"/>
<path style="fill:#e7e7e7; stroke:none;" d="M504 326L505 327L504 326M503 327L504 328L503 327M596 327L597 328L596 327z"/>
<path style="fill:#7b7b7b; stroke:none;" d="M502 328L503 329L502 328z"/>
<path style="fill:#e7e7e7; stroke:none;" d="M595 328L596 329L595 328z"/>
<path style="fill:#7b7b7b; stroke:none;" d="M594 329L595 330L594 329z"/>
<path style="fill:#ffffff; stroke:none;" d="M480 330L480 345L465 345L464 360C474.747 355.018 489.971 341.55 497 332L495 330L480 330z"/>
<path style="fill:#7b7b7b; stroke:none;" d="M593 330L594 331L593 330z"/>
<path style="fill:#e7e7e7; stroke:none;" d="M915 330L915 345L920 345L920 330L915 330z"/>
<path style="fill:#ffffff; stroke:none;" d="M497 331L498 332L497 331z"/>
<path style="fill:#7b7b7b; stroke:none;" d="M496 333L497 334L496 333M495 334L496 335L495 334z"/>
<path style="fill:#ffffff; stroke:none;" d="M591 334L592 335L591 334z"/>
<path style="fill:#7b7b7b; stroke:none;" d="M589 335L587 338L589 335z"/>
<path style="fill:#ffffff; stroke:none;" d="M590 335L591 336L590 335M589 336L590 337L589 336z"/>
<path style="fill:#e7e7e7; stroke:none;" d="M491 337L492 338L491 337z"/>
<path style="fill:#ffffff; stroke:none;" d="M588 337L589 338L588 337z"/>
<path style="fill:#7b7b7b; stroke:none;" d="M490 338L491 339L490 338z"/>
<path style="fill:#ffffff; stroke:none;" d="M587 338L586 341L587 338z"/>
<path style="fill:#7b7b7b; stroke:none;" d="M489 339L490 340L489 339z"/>
<path style="fill:#ffffff; stroke:none;" d="M585 341L586 342L585 341z"/>
<path style="fill:#e7e7e7; stroke:none;" d="M485 342L486 343L485 342z"/>
<path style="fill:#ffffff; stroke:none;" d="M584 342L580 348L581 348L584 342z"/>
<path style="fill:#7b7b7b; stroke:none;" d="M484 343L485 344L484 343M582 343L583 344L582 343M483 344L484 345L483 344M581 344L582 345L581 344z"/>
<path style="fill:#e7e7e7; stroke:none;" d="M0 345L0 360L15 360L15 345L0 345M660 345L660 360L645 360L645 375L660 375L660 390L645 390L645 405L630 405L630 420L615 420L615 435L600 435L600 450L585 450L585 465L570 465L570 480L555 480L555 495L540 495L540 510L525 510L525 525L510 525L510 540L495 540L495 555L510 555L510 540L525 540L525 555L540 555L540 540L555 540L555 555L570 555L570 540L585 540L585 555L600 555L600 540L615 540L615 555L630 555L630 540L645 540L645 555L660 555L660 540L675 540L675 525L660 525L660 510L675 510L675 495L660 495L660 480L675 480L675 465L660 465L660 450L675 450L675 435L660 435L660 420L675 420L675 405L660 405L660 390L675 390L675 375L660 375L660 360L675 360L675 345L660 345M479 347L480 348L479 347M478 348L479 349L478 348z"/>
<path style="fill:#ffffff; stroke:none;" d="M579 348L580 349L579 348z"/>
<path style="fill:#7b7b7b; stroke:none;" d="M477 349L478 350L477 349M577 349L575 352L577 349z"/>
<path style="fill:#ffffff; stroke:none;" d="M578 349L579 350L578 349z"/>
<path style="fill:#7b7b7b; stroke:none;" d="M476 350L477 351L476 350z"/>
<path style="fill:#ffffff; stroke:none;" d="M577 350L578 351L577 350M576 351L577 352L576 351M575 352L576 353L575 352M574 353L573 356L574 353z"/>
<path style="fill:#e7e7e7; stroke:none;" d="M471 354L472 355L471 354z"/>
<path style="fill:#7b7b7b; stroke:none;" d="M470 355L471 356L470 355M469 356L470 357L469 356z"/>
<path style="fill:#ffffff; stroke:none;" d="M572 356L571 358L572 356z"/>
<path style="fill:#7b7b7b; stroke:none;" d="M569 358L568 360L569 358z"/>
<path style="fill:#ffffff; stroke:none;" d="M570 358L571 359L570 358M569 359L570 360L569 359M450 360L449 373L464 360L450 360M568 360L569 361L568 360z"/>
<path style="fill:#e7e7e7; stroke:none;" d="M915 360L915 375L920 375L920 360L915 360z"/>
<path style="fill:#ffffff; stroke:none;" d="M567 361L566 364L567 361z"/>
<path style="fill:#7b7b7b; stroke:none;" d="M462 362L463 363L462 362M461 363L462 364L461 363z"/>
<path style="fill:#ffffff; stroke:none;" d="M565 364L564 366L565 364z"/>
<path style="fill:#7b7b7b; stroke:none;" d="M562 366L560 369L562 366z"/>
<path style="fill:#ffffff; stroke:none;" d="M563 366L564 367L563 366z"/>
<path style="fill:#e7e7e7; stroke:none;" d="M456 367L457 368L456 367z"/>
<path style="fill:#ffffff; stroke:none;" d="M562 367L563 368L562 367z"/>
<path style="fill:#7b7b7b; stroke:none;" d="M455 368L456 369L455 368z"/>
<path style="fill:#ffffff; stroke:none;" d="M561 368L562 369L561 368z"/>
<path style="fill:#7b7b7b; stroke:none;" d="M454 369L455 370L454 369z"/>
<path style="fill:#ffffff; stroke:none;" d="M560 369L561 370L560 369z"/>
<path style="fill:#7b7b7b; stroke:none;" d="M453 370L454 371L453 370z"/>
<path style="fill:#ffffff; stroke:none;" d="M559 370L558 373L559 370M448 373L447 375L448 373M557 373L558 374L557 373z"/>
<path style="fill:#7b7b7b; stroke:none;" d="M555 374L553 377L555 374z"/>
<path style="fill:#ffffff; stroke:none;" d="M555 390L570 390L570 375C555.648 375 555 375.648 555 390z"/>
<path style="fill:#e7e7e7; stroke:none;" d="M0 375L0 390L15 390L15 375L0 375z"/>
<path style="fill:#ffffff; stroke:none;" d="M435 375L435 386L447 375L435 375z"/>
<path style="fill:#7b7b7b; stroke:none;" d="M446 376L447 377L446 376M445 377L446 378L445 377z"/>
<path style="fill:#ffffff; stroke:none;" d="M553 377L554 378L553 377z"/>
<path style="fill:#7b7b7b; stroke:none;" d="M444 378L445 379L444 378z"/>
<path style="fill:#ffffff; stroke:none;" d="M552 378L550 382L552 378z"/>
<path style="fill:#7b7b7b; stroke:none;" d="M443 379L444 380L443 379z"/>
<path style="fill:#ffffff; stroke:none;" d="M549 382L548 384L549 382z"/>
<path style="fill:#7b7b7b; stroke:none;" d="M546 384L544 387L546 384z"/>
<path style="fill:#ffffff; stroke:none;" d="M547 384L548 385L547 384M546 385L547 386L546 385M434 386C429.457 389.842 425.758 389.999 420 390C419.992 400.611 415.611 404.992 405 405L405 416C412.978 410.38 431.694 395.512 434 386M545 386L546 387L545 386z"/>
<path style="fill:#7b7b7b; stroke:none;" d="M434 387L435 388L434 387z"/>
<path style="fill:#ffffff; stroke:none;" d="M544 387L545 388L544 387z"/>
<path style="fill:#7b7b7b; stroke:none;" d="M433 388L434 389L433 388z"/>
<path style="fill:#ffffff; stroke:none;" d="M543 388L544 389L543 388z"/>
<path style="fill:#7b7b7b; stroke:none;" d="M432 389L433 390L432 389z"/>
<path style="fill:#ffffff; stroke:none;" d="M540 405L555 405L555 390C541.102 390 539.998 391.118 540 405z"/>
<path style="fill:#7b7b7b; stroke:none;" d="M431 390L432 391L431 390z"/>
<path style="fill:#e7e7e7; stroke:none;" d="M915 390L915 405L920 405L920 390L915 390z"/>
<path style="fill:#7b7b7b; stroke:none;" d="M430 391L431 392L430 391M429 392L430 393L429 392M537 394L534 398L537 394z"/>
<path style="fill:#ffffff; stroke:none;" d="M538 394L539 395L538 394M537 395L538 396L537 395M536 396L537 397L536 396M535 397L536 398L535 397M534 398L535 399L534 398M533 399L530 404L533 399M521 413L525 410L525 420L540 420L540 405C531.107 404.994 526.525 405.164 521 413z"/>
<path style="fill:#e7e7e7; stroke:none;" d="M0 405L0 420L15 420L15 405L0 405z"/>
<path style="fill:#ffffff; stroke:none;" d="M645 405L645 420L630 420L630 435L615 435L615 450L600 450L600 465L585 465L585 480L570 480L570 495L555 495L555 510L540 510L540 525L525 525L525 540L540 540L540 525L555 525L555 540L570 540L570 525L585 525L585 540L600 540L600 525L615 525L615 540L630 540L630 525L645 525L645 540L660 540L660 525L645 525L645 510L660 510L660 495L645 495L645 480L660 480L660 465L645 465L645 450L660 450L660 435L645 435L645 420L660 420L660 405L645 405z"/>
<path style="fill:#7b7b7b; stroke:none;" d="M524 408L525 409L524 408M523 409L524 410L523 409M522 410L523 411L522 410M521 411L522 412L521 411M409 412L410 413L409 412M408 413L409 414L408 413z"/>
<path style="fill:#ffffff; stroke:none;" d="M520 413L521 414L520 413z"/>
<path style="fill:#7b7b7b; stroke:none;" d="M407 414L408 415L407 414z"/>
<path style="fill:#ffffff; stroke:none;" d="M519 414L516 419L519 414z"/>
<path style="fill:#7b7b7b; stroke:none;" d="M406 415L407 416L406 415z"/>
<path style="fill:#ffffff; stroke:none;" d="M404 416L403 418L404 416M402.333 418.667L402.667 419.333L402.333 418.667M504 431L510 426L510 435L525 435L525 420C514.853 419.973 510.087 422.359 504 431M390 420L391 437L390 437L375 435L375 450L382 450L381 453L382 453L402 420L390 420z"/>
<path style="fill:#e7e7e7; stroke:none;" d="M915 420L915 435L920 435L920 420L915 420z"/>
<path style="fill:#7b7b7b; stroke:none;" d="M401 421L402 422L401 421z"/>
<path style="fill:#e7e7e7; stroke:none;" d="M400 422L401 423L400 422z"/>
<path style="fill:#7b7b7b; stroke:none;" d="M510 423L511 424L510 423M399 424L400 425L399 424M509 424L510 425L509 424z"/>
<path style="fill:#e7e7e7; stroke:none;" d="M398 425L399 426L398 425z"/>
<path style="fill:#7b7b7b; stroke:none;" d="M508 425L509 426L508 425M507 426L508 427L507 426M397 427L398 428L397 427M506 427L507 428L506 427z"/>
<path style="fill:#e7e7e7; stroke:none;" d="M396 428L397 429L396 428z"/>
<path style="fill:#7b7b7b; stroke:none;" d="M505 428L506 429L505 428M504 429L505 430L504 429M395 430L396 431L395 430z"/>
<path style="fill:#ffffff; stroke:none;" d="M503 431L504 432L503 431z"/>
<path style="fill:#7b7b7b; stroke:none;" d="M394 432L395 433L394 432z"/>
<path style="fill:#ffffff; stroke:none;" d="M502 432L503 433L502 432z"/>
<path style="fill:#e7e7e7; stroke:none;" d="M393 433L394 434L393 433z"/>
<path style="fill:#ffffff; stroke:none;" d="M501 433L502 434L501 433M474 461L480 456L480 465L495 465L495 450L487 450L495 442L495 450L510 450L510 435C494.784 434.96 482.6 448.792 474 461z"/>
<path style="fill:#e7e7e7; stroke:none;" d="M0 435L0 450L15 450L15 435L0 435z"/>
<path style="fill:#7b7b7b; stroke:none;" d="M392 435L393 436L392 435z"/>
<path style="fill:#e7e7e7; stroke:none;" d="M630 435L630 450L615 450L615 465L600 465L600 480L585 480L585 495L570 495L570 510L555 510L555 525L570 525L570 510L585 510L585 525L600 525L600 510L615 510L615 525L630 525L630 510L645 510L645 495L630 495L630 480L645 480L645 465L630 465L630 450L645 450L645 435L630 435z"/>
<path style="fill:#7b7b7b; stroke:none;" d="M391 437L392 438L391 437z"/>
<path style="fill:#e7e7e7; stroke:none;" d="M390 438L391 439L390 438M389 440L390 441L389 440z"/>
<path style="fill:#7b7b7b; stroke:none;" d="M388 442L389 443L388 442M387 444L388 445L387 444z"/>
<path style="fill:#e7e7e7; stroke:none;" d="M386 445L387 446L386 445z"/>
<path style="fill:#7b7b7b; stroke:none;" d="M385 447L386 448L385 447M384 449L385 450L384 449z"/>
<path style="fill:#e7e7e7; stroke:none;" d="M383 450L384 451L383 450M915 450L915 465L920 465L920 450L915 450z"/>
<path style="fill:#7b7b7b; stroke:none;" d="M382 452L383 453L382 452M480 453L481 454L480 453M381 454L382 455L381 454z"/>
<path style="fill:#ffffff; stroke:none;" d="M380.667 455.333L381.333 455.667L380.667 455.333z"/>
<path style="fill:#7b7b7b; stroke:none;" d="M478 455L479 456L478 455z"/>
<path style="fill:#ffffff; stroke:none;" d="M382 456L382 457L386 459L382 456z"/>
<path style="fill:#7b7b7b; stroke:none;" d="M477 456L478 457L477 456M385 457L386 458L385 457M476 457L477 458L476 457M475 458L476 459L475 458z"/>
<path style="fill:#ffffff; stroke:none;" d="M386 459L387 460L386 459z"/>
<path style="fill:#7b7b7b; stroke:none;" d="M474 459L475 460L474 459z"/>
<path style="fill:#ffffff; stroke:none;" d="M387 460L390 462L387 460M473 461L472 463L473 461M390 462L399 473L400 473L390 462z"/>
<path style="fill:#7b7b7b; stroke:none;" d="M391 462L392 463L391 462M392 463L393 464L392 463z"/>
<path style="fill:#ffffff; stroke:none;" d="M465 480L480 480L480 465C476.075 465 471.22 466.119 472 463C464.105 466.697 464.995 472.392 465 480z"/>
<path style="fill:#7b7b7b; stroke:none;" d="M393 464L394 465L393 464z"/>
<path style="fill:#e7e7e7; stroke:none;" d="M0 465L0 480L15 480L15 465L0 465M330 465L331 474L336 473C336 469.612 339.476 471.535 342 472L345 470L345 465L330 465z"/>
<path style="fill:#7b7b7b; stroke:none;" d="M394 465L395 466L394 465z"/>
<path style="fill:#ffffff; stroke:none;" d="M615 465L615 480L600 480L600 495L585 495L585 510L600 510L600 495L615 495L615 510L630 510L630 495L615 495L615 480L630 480L630 465L615 465z"/>
<path style="fill:#7b7b7b; stroke:none;" d="M395 466L396 467L395 466M466 466L467 467L466 466M396 467L397 468L396 467M465 467L466 468L465 467M397 468L398 469L397 468M464 468L465 469L464 468M398 469L399 470L398 469z"/>
<path style="fill:#ffffff; stroke:none;" d="M463 470L464 471L463 470M335 471L335 472L340 472L335 471z"/>
<path style="fill:#7b7b7b; stroke:none;" d="M342 471L342 472L347 472L342 471z"/>
<path style="fill:#010101; stroke:none;" d="M205 611C216.209 617.289 231.473 619.879 244 622.4C305.315 634.736 364.317 615.79 388.796 554C392.625 544.335 396.969 533.374 398.241 523C399.172 515.398 392.526 506.033 388.481 500C374.477 479.116 356.392 465.958 331 474.029C279.902 490.269 274.03 553.612 239.996 588C230.754 597.338 218.413 608.609 205 611z"/>
<path style="fill:#7b7b7b; stroke:none;" d="M350 471L351 472L350 471M352 471L352 472L355 472L352 471z"/>
<path style="fill:#e7e7e7; stroke:none;" d="M355.667 471.333L356.333 471.667L355.667 471.333z"/>
<path style="fill:#ffffff; stroke:none;" d="M460 473L463 471L460 473M332 472L332 473L335 473L332 472z"/>
<path style="fill:#7b7b7b; stroke:none;" d="M336 472L337 473L336 472z"/>
<path style="fill:#e7e7e7; stroke:none;" d="M360 472L361 473L360 472z"/>
<path style="fill:#7b7b7b; stroke:none;" d="M332 473L333 474L332 473M361 473L362 474L361 473z"/>
<path style="fill:#ffffff; stroke:none;" d="M400 473L402 475L400 473z"/>
<path style="fill:#7b7b7b; stroke:none;" d="M458 473L459 474L458 473z"/>
<path style="fill:#ffffff; stroke:none;" d="M459 473L460 474L459 473z"/>
<path style="fill:#7b7b7b; stroke:none;" d="M329 474L330 475L329 474z"/>
<path style="fill:#e7e7e7; stroke:none;" d="M363 474L364 475L363 474z"/>
<path style="fill:#ffffff; stroke:none;" d="M458 474L459 475L458 474z"/>
<path style="fill:#e7e7e7; stroke:none;" d="M326 475L327 476L326 475z"/>
<path style="fill:#7b7b7b; stroke:none;" d="M364 475L365 476L364 475z"/>
<path style="fill:#ffffff; stroke:none;" d="M402 475L404 479L405 479L402 475z"/>
<path style="fill:#7b7b7b; stroke:none;" d="M403 475L404 476L403 475z"/>
<path style="fill:#ffffff; stroke:none;" d="M456.667 475.333L457.333 475.667L456.667 475.333z"/>
<path style="fill:#7b7b7b; stroke:none;" d="M324 476L325 477L324 476z"/>
<path style="fill:#e7e7e7; stroke:none;" d="M366 476L367 477L366 476z"/>
<path style="fill:#ffffff; stroke:none;" d="M455 476L456 477L455 476z"/>
<path style="fill:#7b7b7b; stroke:none;" d="M322 477L323 478L322 477z"/>
<path style="fill:#e7e7e7; stroke:none;" d="M367 477L368 478L367 477z"/>
<path style="fill:#7b7b7b; stroke:none;" d="M452 477L453 478L452 477z"/>
<path style="fill:#ffffff; stroke:none;" d="M453.667 477.333L454.333 477.667L453.667 477.333z"/>
<path style="fill:#7b7b7b; stroke:none;" d="M320 478L321 479L320 478M368 478L369 479L368 478z"/>
<path style="fill:#ffffff; stroke:none;" d="M452 478L453 479L452 478z"/>
<path style="fill:#7b7b7b; stroke:none;" d="M318 479L319 480L318 479z"/>
<path style="fill:#ffffff; stroke:none;" d="M405 479L406 482L407 482L405 479z"/>
<path style="fill:#7b7b7b; stroke:none;" d="M406 479L407 480L406 479z"/>
<path style="fill:#e7e7e7; stroke:none;" d="M449 479L450 480L449 479z"/>
<path style="fill:#ffffff; stroke:none;" d="M420 494L420 495L435 495C435.281 486.355 442.877 483.966 450 481L450 495L465 495L465 480L450 479.807L420 494z"/>
<path style="fill:#e7e7e7; stroke:none;" d="M316 480L317 481L316 480z"/>
<path style="fill:#7b7b7b; stroke:none;" d="M447 480L448 481L447 480z"/>
<path style="fill:#e7e7e7; stroke:none;" d="M915 480L915 495L920 495L920 480L915 480M372 481L373 482L372 481z"/>
<path style="fill:#7b7b7b; stroke:none;" d="M445 481L446 482L445 481z"/>
<path style="fill:#e7e7e7; stroke:none;" d="M313 482L314 483L313 482M373 482L374 483L373 482z"/>
<path style="fill:#ffffff; stroke:none;" d="M407 482L408 485L409 485L407 482z"/>
<path style="fill:#7b7b7b; stroke:none;" d="M408 482L409 483L408 482M443 482L444 483L443 482M312 483L313 484L312 483M374 483L375 484L374 483M441 483L442 484L441 483M375 484L376 485L375 484M439 484L440 485L439 484M309 485L310 486L309 485M376 485L377 486L376 485z"/>
<path style="fill:#ffffff; stroke:none;" d="M409 485L410 488L411 488L409 485z"/>
<path style="fill:#7b7b7b; stroke:none;" d="M410 485L411 486L410 485M437 485L438 486L437 485M308 486L309 487L308 486M377 486L378 487L377 486M435 486L436 487L435 486M378 487L379 488L378 487z"/>
<path style="fill:#e7e7e7; stroke:none;" d="M433 487L434 488L433 487M379 488L380 489L379 488z"/>
<path style="fill:#ffffff; stroke:none;" d="M411.333 488.667L411.667 489.333L411.333 488.667z"/>
<path style="fill:#e7e7e7; stroke:none;" d="M431 488L432 489L431 488M380 489L381 490L380 489M429 489L430 490L429 489M303 490L304 491L303 490M381 490L382 491L381 490z"/>
<path style="fill:#ffffff; stroke:none;" d="M412 490L414 495L405 495L405 510L420 510L420 495L416 497L412 490z"/>
<path style="fill:#7b7b7b; stroke:none;" d="M413 490L414 491L413 490z"/>
<path style="fill:#e7e7e7; stroke:none;" d="M427 490L428 491L427 490M302 491L303 492L302 491z"/>
<path style="fill:#7b7b7b; stroke:none;" d="M425 491L426 492L425 491z"/>
<path style="fill:#e7e7e7; stroke:none;" d="M301 492L302 493L301 492z"/>
<path style="fill:#7b7b7b; stroke:none;" d="M414 492L415 493L414 492M423 492L424 493L423 492z"/>
<path style="fill:#e7e7e7; stroke:none;" d="M300 493L301 494L300 493z"/>
<path style="fill:#7b7b7b; stroke:none;" d="M383 493L384 494L383 493M421 493L422 494L421 493z"/>
<path style="fill:#e7e7e7; stroke:none;" d="M299 494L300 495L299 494z"/>
<path style="fill:#7b7b7b; stroke:none;" d="M384 494L385 495L384 494M415 494L416 495L415 494z"/>
<path style="fill:#e7e7e7; stroke:none;" d="M0 495L0 510L15 510L15 495L0 495M418 495L419 496L418 495M416 496L417 497L416 496z"/>
<path style="fill:#7b7b7b; stroke:none;" d="M386 497L387 498L386 497z"/>
<path style="fill:#e7e7e7; stroke:none;" d="M387 498L388 499L387 498z"/>
<path style="fill:#7b7b7b; stroke:none;" d="M295 499L296 500L295 499M294 500L295 501L294 500z"/>
<path style="fill:#e7e7e7; stroke:none;" d="M293 501L294 502L293 501M389 501L390 502L389 501z"/>
<path style="fill:#7b7b7b; stroke:none;" d="M390 503L391 504L390 503M291 504L292 505L291 504z"/>
<path style="fill:#e7e7e7; stroke:none;" d="M391 504L392 505L391 504M290 505L291 506L290 505z"/>
<path style="fill:#7b7b7b; stroke:none;" d="M392 506L393 507L392 506z"/>
<path style="fill:#e7e7e7; stroke:none;" d="M288 508L289 509L288 508z"/>
<path style="fill:#7b7b7b; stroke:none;" d="M393 508L394 509L393 508M394 510L395 511L394 510z"/>
<path style="fill:#e7e7e7; stroke:none;" d="M915 510L915 525L920 525L920 510L915 510z"/>
<path style="fill:#7b7b7b; stroke:none;" d="M286 511L287 512L286 511M395 512L396 513L395 512z"/>
<path style="fill:#e7e7e7; stroke:none;" d="M284 514L285 515L284 514z"/>
<path style="fill:#7b7b7b; stroke:none;" d="M396 514L397 515L396 514M283 516L284 517L283 516z"/>
<path style="fill:#e7e7e7; stroke:none;" d="M397 516L398 517L397 516z"/>
<path style="fill:#7b7b7b; stroke:none;" d="M282 518L283 519L282 518z"/>
<path style="fill:#e7e7e7; stroke:none;" d="M281 519L282 520L281 519z"/>
<path style="fill:#7b7b7b; stroke:none;" d="M398 519L399 520L398 519z"/>
<path style="fill:#e7e7e7; stroke:none;" d="M280 521L281 522L280 521z"/>
<path style="fill:#7b7b7b; stroke:none;" d="M398 522L399 523L398 522M279 523L280 524L279 523z"/>
<path style="fill:#e7e7e7; stroke:none;" d="M398 523L399 524L398 523M0 525L0 540L15 540L15 525L0 525M270 525L270 540L271 540L275 534L277 525L270 525z"/>
<path style="fill:#7b7b7b; stroke:none;" d="M278 525L279 526L278 525M397 526L398 527L397 526M277 527L278 528L277 527z"/>
<path style="fill:#e7e7e7; stroke:none;" d="M397 527L398 528L397 527z"/>
<path style="fill:#7b7b7b; stroke:none;" d="M276 529L277 530L276 529M396 530L397 531L396 530M275 531L276 532L275 531z"/>
<path style="fill:#e7e7e7; stroke:none;" d="M396 531L397 532L396 531z"/>
<path style="fill:#7b7b7b; stroke:none;" d="M395 534L396 535L395 534z"/>
<path style="fill:#e7e7e7; stroke:none;" d="M273 535L274 536L273 535z"/>
<path style="fill:#7b7b7b; stroke:none;" d="M273 536L274 537L273 536M394 537L395 538L394 537M272 538L273 539L272 538z"/>
<path style="fill:#e7e7e7; stroke:none;" d="M394 538L395 539L394 538M225 540L225 555L240 555L240 540L225 540M271 540L272 541L271 540z"/>
<path style="fill:#7b7b7b; stroke:none;" d="M393 540L394 541L393 540z"/>
<path style="fill:#e7e7e7; stroke:none;" d="M915 540L915 555L920 555L920 540L915 540M393 541L394 542L393 541M270 542L271 543L270 542z"/>
<path style="fill:#7b7b7b; stroke:none;" d="M392 543L393 544L392 543z"/>
<path style="fill:#e7e7e7; stroke:none;" d="M392 544L393 545L392 544z"/>
<path style="fill:#7b7b7b; stroke:none;" d="M269 545L270 546L269 545M391 546L392 547L391 546M268 547L269 548L268 547z"/>
<path style="fill:#e7e7e7; stroke:none;" d="M391 547L392 548L391 547z"/>
<path style="fill:#7b7b7b; stroke:none;" d="M267 549L268 550L267 549M390 549L391 550L390 549M266 551L267 552L266 551M389 552L390 553L389 552M265 553L266 554L265 553z"/>
<path style="fill:#e7e7e7; stroke:none;" d="M264 554L265 555L264 554z"/>
<path style="fill:#7b7b7b; stroke:none;" d="M388 554L389 555L388 554z"/>
<path style="fill:#e7e7e7; stroke:none;" d="M0 555L0 570L15 570L15 555L0 555z"/>
<path style="fill:#ffffff; stroke:none;" d="M435 555L435 570L450 570L450 555L435 555z"/>
<path style="fill:#e7e7e7; stroke:none;" d="M263 556L264 557L263 556M387 557L388 558L387 557z"/>
<path style="fill:#7b7b7b; stroke:none;" d="M262 558L263 559L262 558M386 559L387 560L386 559M261 560L262 561L261 560z"/>
<path style="fill:#e7e7e7; stroke:none;" d="M260 561L261 562L260 561z"/>
<path style="fill:#7b7b7b; stroke:none;" d="M385 561L386 562L385 561M259 563L260 564L259 563M384 563L385 564L384 563M258 565L259 566L258 565M383 565L384 566L383 565z"/>
<path style="fill:#e7e7e7; stroke:none;" d="M257 566L258 567L257 566z"/>
<path style="fill:#7b7b7b; stroke:none;" d="M382 567L383 568L382 567M255 569L256 570L255 569M381 569L382 570L381 569z"/>
<path style="fill:#e7e7e7; stroke:none;" d="M915 570L915 585L920 585L920 570L915 570z"/>
<path style="fill:#7b7b7b; stroke:none;" d="M380 571L381 572L380 571M253 572L254 573L253 572z"/>
<path style="fill:#e7e7e7; stroke:none;" d="M252 573L253 574L252 573M379 573L380 574L379 573z"/>
<path style="fill:#7b7b7b; stroke:none;" d="M378 574L379 575L378 574M250 576L251 577L250 576M377 576L378 577L377 576M249 577L250 578L249 577z"/>
<path style="fill:#e7e7e7; stroke:none;" d="M248 578L249 579L248 578z"/>
<path style="fill:#7b7b7b; stroke:none;" d="M375 579L376 580L375 579M245 582L246 583L245 582z"/>
<path style="fill:#e7e7e7; stroke:none;" d="M373 582L374 583L373 582z"/>
<path style="fill:#7b7b7b; stroke:none;" d="M244 583L245 584L244 583z"/>
<path style="fill:#e7e7e7; stroke:none;" d="M243 584L244 585L243 584M0 585L0 600L15 600L15 585L0 585M242 585L243 586L242 585M371 585L372 586L371 585M241 586L242 587L241 586z"/>
<path style="fill:#7b7b7b; stroke:none;" d="M370 586L371 587L370 586z"/>
<path style="fill:#e7e7e7; stroke:none;" d="M240 587L241 588L240 587z"/>
<path style="fill:#7b7b7b; stroke:none;" d="M369 587L370 588L369 587z"/>
<path style="fill:#e7e7e7; stroke:none;" d="M239 588L240 589L239 588M238 589L239 590L238 589M367 590L368 591L367 590M236 591L237 592L236 591M366 591L367 592L366 591M235 592L236 593L235 592M365 592L366 593L365 592z"/>
<path style="fill:#7b7b7b; stroke:none;" d="M234 593L235 594L234 593M364 593L365 594L364 593M233 594L234 595L233 594M363 594L364 595L363 594M232 595L233 596L232 595M362 595L363 596L362 595M361 596L362 597L361 596z"/>
<path style="fill:#e7e7e7; stroke:none;" d="M229 597L230 598L229 597z"/>
<path style="fill:#7b7b7b; stroke:none;" d="M360 597L361 598L360 597M228 598L229 599L228 598M359 598L360 599L359 598M227 599L228 600L227 599M358 599L359 600L358 599z"/>
<path style="fill:#e7e7e7; stroke:none;" d="M195 600L195 615L210 615L210 614L208 612L203 612L203 611L207 611L210 609L210 600L195 600M225 600L226 601L225 600M357 600L358 601L357 600M915 600L915 615L920 615L920 600L915 600M224 601L225 602L224 601M356 601L357 602L356 601z"/>
<path style="fill:#7b7b7b; stroke:none;" d="M223 602L224 603L223 602z"/>
<path style="fill:#e7e7e7; stroke:none;" d="M355 602L356 603L355 602M221 603L222 604L221 603z"/>
<path style="fill:#7b7b7b; stroke:none;" d="M352 604L353 605L352 604z"/>
<path style="fill:#e7e7e7; stroke:none;" d="M218 605L219 606L218 605M351 605L352 606L351 605M216 606L217 607L216 606z"/>
<path style="fill:#7b7b7b; stroke:none;" d="M348 607L349 608L348 607z"/>
<path style="fill:#e7e7e7; stroke:none;" d="M212 608L213 609L212 608M347 608L348 609L347 608M210 609L211 610L210 609z"/>
<path style="fill:#7b7b7b; stroke:none;" d="M345 609L346 610L345 609z"/>
<path style="fill:#ffffff; stroke:none;" d="M203 611L203 612L207 613L207 612L204 612L204 611L206 611L203 611z"/>
<path style="fill:#7b7b7b; stroke:none;" d="M207.667 610.333L208.333 610.667L207.667 610.333M204 611L205 612L204 611M342 611L343 612L342 611M208 612L209 613L208 612M340 612L341 613L340 612z"/>
<path style="fill:#e7e7e7; stroke:none;" d="M210 613L211 614L210 613z"/>
<path style="fill:#7b7b7b; stroke:none;" d="M214 614L215 615L214 614z"/>
<path style="fill:#e7e7e7; stroke:none;" d="M0 615L0 630L15 630L15 615L0 615z"/>
<path style="fill:#ffffff; stroke:none;" d="M214.667 615.333L215.333 615.667L214.667 615.333z"/>
<path style="fill:#7b7b7b; stroke:none;" d="M217 615L218 616L217 615z"/>
<path style="fill:#e7e7e7; stroke:none;" d="M335 615L336 616L335 615z"/>
<path style="fill:#ffffff; stroke:none;" d="M217.667 616.333L218.333 616.667L217.667 616.333z"/>
<path style="fill:#7b7b7b; stroke:none;" d="M220 616L221 617L220 616M332 616L333 617L332 616z"/>
<path style="fill:#ffffff; stroke:none;" d="M220 617L220 618L225 619L225 630L240 630L242 623L242 622L220 617z"/>
<path style="fill:#e7e7e7; stroke:none;" d="M222 617L223 618L222 617z"/>
<path style="fill:#7b7b7b; stroke:none;" d="M223 617L224 618L223 617M330 617L331 618L330 617z"/>
<path style="fill:#e7e7e7; stroke:none;" d="M226 618L227 619L226 618z"/>
<path style="fill:#7b7b7b; stroke:none;" d="M227 618L228 619L227 618z"/>
<path style="fill:#e7e7e7; stroke:none;" d="M328 618L329 619L328 618M230 619L231 620L230 619z"/>
<path style="fill:#7b7b7b; stroke:none;" d="M231 619L232 620L231 619M325 619L326 620L325 619M234.667 620.333L235.333 620.667L234.667 620.333M322 620L323 621L322 620z"/>
<path style="fill:#e7e7e7; stroke:none;" d="M238 621L239 622L238 621z"/>
<path style="fill:#7b7b7b; stroke:none;" d="M239 621L240 622L239 621M319 621L320 622L319 621M243.667 622.333L244.333 622.667L243.667 622.333M315 622L316 623L315 622z"/>
<path style="fill:#e7e7e7; stroke:none;" d="M316 622L317 623L316 622z"/>
<path style="fill:#ffffff; stroke:none;" d="M243 623L243 624L247 624L243 623z"/>
<path style="fill:#7b7b7b; stroke:none;" d="M248.667 623.333L249.333 623.667L248.667 623.333M311.667 623.333L312.333 623.667L311.667 623.333z"/>
<path style="fill:#ffffff; stroke:none;" d="M248 624L248 625L253 625L248 624z"/>
<path style="fill:#7b7b7b; stroke:none;" d="M254.667 624.333L255.333 624.667L254.667 624.333M306.667 624.333L307.333 624.667L306.667 624.333z"/>
<path style="fill:#ffffff; stroke:none;" d="M254 625L255 630L270 630L270 626L254 625z"/>
<path style="fill:#e7e7e7; stroke:none;" d="M260.667 625.333L261.333 625.667L260.667 625.333z"/>
<path style="fill:#7b7b7b; stroke:none;" d="M262 625L262 626L265 626L262 625M299 625L299 626L302 626L299 625z"/>
<path style="fill:#ffffff; stroke:none;" d="M303 625L303 626L308 626L303 625z"/>
<path style="fill:#7b7b7b; stroke:none;" d="M272 626L272 627L291 627L272 626z"/>
<path style="fill:#e7e7e7; stroke:none;" d="M291.667 626.333L292.333 626.667L291.667 626.333z"/>
<path style="fill:#ffffff; stroke:none;" d="M271 627L271 628L300 630L302 627L271 627z"/>
<path style="fill:#e7e7e7; stroke:none;" d="M915 630L915 645L920 645L920 630L915 630M0 645L0 660L15 660L15 645L0 645M915 660L915 675L920 675L920 660L915 660M0 675L0 690L15 690L15 675L0 675M915 690L915 705L920 705L920 690L915 690M0 705L0 720L15 720L15 705L0 705M915 720L915 735L920 735L920 720L915 720M0 735L0 750L15 750L15 735L0 735M915 750L915 765L920 765L920 750L915 750M0 765L0 780L15 780L15 765L0 765M915 780L915 795L920 795L920 780L915 780M0 795L0 800L15 800L15 795L0 795M30 795L30 800L45 800L45 795L30 795M60 795L60 800L75 800L75 795L60 795M90 795L90 800L105 800L105 795L90 795M120 795L120 800L135 800L135 795L120 795M150 795L150 800L165 800L165 795L150 795M180 795L180 800L195 800L195 795L180 795M210 795L210 800L225 800L225 795L210 795M240 795L240 800L255 800L255 795L240 795M270 795L270 800L285 800L285 795L270 795M300 795L300 800L315 800L315 795L300 795M330 795L330 800L345 800L345 795L330 795M360 795L360 800L375 800L375 795L360 795M390 795L390 800L405 800L405 795L390 795M420 795L420 800L435 800L435 795L420 795M450 795L450 800L465 800L465 795L450 795M480 795L480 800L495 800L495 795L480 795M510 795L510 800L525 800L525 795L510 795M540 795L540 800L555 800L555 795L540 795M570 795L570 800L585 800L585 795L570 795M600 795L600 800L615 800L615 795L600 795M630 795L630 800L645 800L645 795L630 795M660 795L660 800L675 800L675 795L660 795M690 795L690 800L705 800L705 795L690 795M720 795L720 800L735 800L735 795L720 795M750 795L750 800L765 800L765 795L750 795M780 795L780 800L795 800L795 795L780 795M810 795L810 800L825 800L825 795L810 795M840 795L840 800L855 800L855 795L840 795M870 795L870 800L885 800L885 795L870 795M900 795L900 800L915 800L915 795L900 795z"/>
</svg>
