<?xml version="1.0" standalone="yes"?>
<svg xmlns="http://www.w3.org/2000/svg" width="225" height="224">
<path style="fill:#ffffff; stroke:none;" d="M0 0L0 224L225 224L225 0L0 0z"/>
<path style="fill:#9c9c9c; stroke:none;" d="M99 65L99 66L120 66L99 65z"/>
<path style="fill:#606060; stroke:none;" d="M99 66L100 67L99 66z"/>
<path style="fill:#111111; stroke:none;" d="M100 66L100 100L125 100C125 91.7715 128.571 72.8796 120.941 67.6034C115.87 64.0963 105.922 66 100 66z"/>
<path style="fill:#606060; stroke:none;" d="M120 66L121 67L120 66z"/>
<path style="fill:#9c9c9c; stroke:none;" d="M99 67L99 100L100 100L99 67z"/>
<path style="fill:#606060; stroke:none;" d="M121 67L122 68L121 67M122 68L123 69L122 68M123 69L124 70L123 69M124 70L125 71L124 70M103 74L104 75L103 74z"/>
<path style="fill:#ffffff; stroke:none;" d="M104 74L104 75L120 75L104 74z"/>
<path style="fill:#2e2e2e; stroke:none;" d="M104 75L104 76L120 76L104 75z"/>
<path style="fill:#606060; stroke:none;" d="M103 78L104 79L103 78z"/>
<path style="fill:#ffffff; stroke:none;" d="M104 78L104 79L120 79L104 78z"/>
<path style="fill:#9c9c9c; stroke:none;" d="M120 78L121 79L120 78z"/>
<path style="fill:#2e2e2e; stroke:none;" d="M104 79L104 80L121 80L104 79z"/>
<path style="fill:#606060; stroke:none;" d="M103 82L104 83L103 82z"/>
<path style="fill:#ffffff; stroke:none;" d="M104 82L104 83L118 83L104 82z"/>
<path style="fill:#9c9c9c; stroke:none;" d="M118 82L119 83L118 82z"/>
<path style="fill:#2e2e2e; stroke:none;" d="M103 83L103 84L119 84L103 83z"/>
<path style="fill:#606060; stroke:none;" d="M103 86L103 87L121 88L121 87L103 86z"/>
<path style="fill:#ffffff; stroke:none;" d="M104 86L104 87L120 87L104 86z"/>
<path style="fill:#9c9c9c; stroke:none;" d="M120 86L121 87L120 86z"/>
<path style="fill:#2e2e2e; stroke:none;" d="M103 87L104 88L103 87M103.333 90.6667L103.667 91.3333L103.333 90.6667z"/>
<path style="fill:#9c9c9c; stroke:none;" d="M104 90L104 91L117 91L104 90z"/>
<path style="fill:#606060; stroke:none;" d="M104 91L104 92L117 92L104 91z"/>
<path style="fill:#9c9c9c; stroke:none;" d="M99 101L99 102L125 103C120.83 98.2281 105.17 101 99 101z"/>
<path style="fill:#111111; stroke:none;" d="M100 102C101.823 106.229 106.269 118.637 111.198 119.623C117.45 120.875 122.556 106.562 124 102L100 102z"/>
<path style="fill:#9c9c9c; stroke:none;" d="M100 103L101 104L100 103M123 104L124 105L123 104M101 105L102 106L101 105M122 106L123 107L122 106M102 107L103 108L102 107z"/>
<path style="fill:#2e2e2e; stroke:none;" d="M121 107L122 108L121 107M103 108L104 109L103 108z"/>
<path style="fill:#9c9c9c; stroke:none;" d="M121 108L122 109L121 108M103 109L104 110L103 109z"/>
<path style="fill:#2e2e2e; stroke:none;" d="M120 109L121 110L120 109M104 110L105 111L104 110z"/>
<path style="fill:#9c9c9c; stroke:none;" d="M120 110L121 111L120 110M104 111L105 112L104 111z"/>
<path style="fill:#606060; stroke:none;" d="M119 111L120 112L119 111M105 112L106 113L105 112M118 113L119 114L118 113M106 114L107 115L106 114M117 115L118 116L117 115M107 116L108 117L107 116M116 117L117 118L116 117z"/>
<path style="fill:#9c9c9c; stroke:none;" d="M108 118L109 119L108 118M115 119L116 120L115 119M109 120L110 123L115 121L109 120z"/>
<path style="fill:#111111; stroke:none;" d="M111 122L112 125L114 122L111 122z"/>
<path style="fill:#9c9c9c; stroke:none;" d="M113 123L114 124L113 123M111 124L112 125L111 124M112 125L113 126L112 125M74.6667 133.333L75.3333 133.667L74.6667 133.333z"/>
<path style="fill:#606060; stroke:none;" d="M76.6667 133.333L77.3333 133.667L76.6667 133.333z"/>
<path style="fill:#9c9c9c; stroke:none;" d="M78 133L79 134L78 133M86.6667 133.333L87.3333 133.667L86.6667 133.333z"/>
<path style="fill:#606060; stroke:none;" d="M88.6667 133.333L89.3333 133.667L88.6667 133.333z"/>
<path style="fill:#9c9c9c; stroke:none;" d="M90 133L91 134L90 133M97 133L97 134L101 135L101 134L97 133M105 133L105 134L108 134L105 133M109 136L110 136L120 134C116.807 132.16 109.923 131.693 109 136M121 133L121 134L130 134L121 133M132 133L132 134L136 135L136 134L132 133M140 133L140 134L143 134L140 133M144 136L145 136L155 134C151.807 132.16 144.923 131.693 144 136z"/>
<path style="fill:#2e2e2e; stroke:none;" d="M73 134L74 135L73 134z"/>
<path style="fill:#111111; stroke:none;" d="M81 144L81 143C72.4689 142.722 72.3224 135.556 81 136C71.8777 129.125 66.4111 147.344 81 144z"/>
<path style="fill:#9c9c9c; stroke:none;" d="M80 134L81 135L80 134z"/>
<path style="fill:#2e2e2e; stroke:none;" d="M85 134L86 135L85 134z"/>
<path style="fill:#111111; stroke:none;" d="M86.1481 134.747C79.9365 137.422 84.9268 146.569 90.8912 144.377C98.1149 141.723 92.919 131.831 86.1481 134.747z"/>
<path style="fill:#606060; stroke:none;" d="M92 134L93 135L92 134M97 134L97 144L98 144L97 134z"/>
<path style="fill:#111111; stroke:none;" d="M98 134L100 145L99 138L108 145L108 134L106 134L106 141L100 134L98 134z"/>
<path style="fill:#606060; stroke:none;" d="M105 134L105 140L106 140L105 134z"/>
<path style="fill:#111111; stroke:none;" d="M110 134L110 135L114 135L116 145C114.962 140.576 114.724 137.358 119 135L110 134z"/>
<path style="fill:#606060; stroke:none;" d="M119 134L116 135L116 136L120 135L119 134z"/>
<path style="fill:#111111; stroke:none;" d="M121 134L121 145L130 145L130 143L123 143L123 140L129 140L129 139L123 139L123 135L130 135L121 134z"/>
<path style="fill:#606060; stroke:none;" d="M132 134L132 145L133 145L132 134z"/>
<path style="fill:#111111; stroke:none;" d="M133 134L133 145L135 145L135 138L136 138L143 145L143 134L141 134L141 141L133 134z"/>
<path style="fill:#606060; stroke:none;" d="M140 134L140 140L141 140L140 134z"/>
<path style="fill:#111111; stroke:none;" d="M145 134L145 135L149 135L149 145L151 145C151.003 141.013 150.402 137.332 154 135L145 134z"/>
<path style="fill:#606060; stroke:none;" d="M154 134L151 135L151 136L155 135L154 134z"/>
<path style="fill:#2e2e2e; stroke:none;" d="M75 135L76 136L75 135z"/>
<path style="fill:#606060; stroke:none;" d="M76.6667 135.333L77.3333 135.667L76.6667 135.333z"/>
<path style="fill:#9c9c9c; stroke:none;" d="M81 135L82 136L81 135z"/>
<path style="fill:#2e2e2e; stroke:none;" d="M87 135L88 136L87 135z"/>
<path style="fill:#606060; stroke:none;" d="M88.6667 135.333L89.3333 135.667L88.6667 135.333M93 135L94 136L93 135M110 135L110 136L113 136L110 135z"/>
<path style="fill:#2e2e2e; stroke:none;" d="M113 135L113 145L114 145L113 135z"/>
<path style="fill:#9c9c9c; stroke:none;" d="M119 135L120 136L119 135z"/>
<path style="fill:#2e2e2e; stroke:none;" d="M121 135L121 144L122 144L121 135M123 135L124 136L123 135z"/>
<path style="fill:#606060; stroke:none;" d="M124 135L124 136L130 136L124 135M145 135L145 136L148 136L148 144L149 144C148.985 139.85 149.387 136.456 145 135z"/>
<path style="fill:#2e2e2e; stroke:none;" d="M148 135L149 136L148 135z"/>
<path style="fill:#9c9c9c; stroke:none;" d="M154 135L155 136L154 135z"/>
<path style="fill:#2e2e2e; stroke:none;" d="M71 136L72 137L71 136z"/>
<path style="fill:#9c9c9c; stroke:none;" d="M74 136L75 137L74 136z"/>
<path style="fill:#606060; stroke:none;" d="M79 136L80 137L79 136z"/>
<path style="fill:#9c9c9c; stroke:none;" d="M80 136L81 137L80 136M86 136L87 137L86 136z"/>
<path style="fill:#ffffff; stroke:none;" d="M87.3426 137.086C84.2123 139.061 87.4217 143.851 90.4074 141.763C93.2366 139.785 90.402 135.155 87.3426 137.086z"/>
<path style="fill:#606060; stroke:none;" d="M91 136L92 137L91 136z"/>
<path style="fill:#9c9c9c; stroke:none;" d="M94 136L95 137L94 136z"/>
<path style="fill:#2e2e2e; stroke:none;" d="M101 136L102 137L101 136M115 136L115 144L116 144L115 136z"/>
<path style="fill:#606060; stroke:none;" d="M123 136L129 139L129 138L123 136z"/>
<path style="fill:#9c9c9c; stroke:none;" d="M70.3333 137.667L70.6667 138.333L70.3333 137.667z"/>
<path style="fill:#606060; stroke:none;" d="M73 137L74 138L73 137z"/>
<path style="fill:#9c9c9c; stroke:none;" d="M82 137L82 141L83 141L82 137z"/>
<path style="fill:#606060; stroke:none;" d="M85 137L86 138L85 137M102 137L103 138L102 137M137 137L138 138L137 137M92 138L93 139L92 138z"/>
<path style="fill:#2e2e2e; stroke:none;" d="M99 138L99 144L100 144L99 138z"/>
<path style="fill:#606060; stroke:none;" d="M100 138L101 139L100 138z"/>
<path style="fill:#9c9c9c; stroke:none;" d="M103 138L104 139L103 138z"/>
<path style="fill:#2e2e2e; stroke:none;" d="M123 138L124 139L123 138z"/>
<path style="fill:#606060; stroke:none;" d="M135 138L136 139L135 138M138 138L139 139L138 138M70 139L71 140L70 139z"/>
<path style="fill:#9c9c9c; stroke:none;" d="M92 139L93 140L92 139M104 139L105 140L104 139z"/>
<path style="fill:#2e2e2e; stroke:none;" d="M136 139L137 140L136 139z"/>
<path style="fill:#9c9c9c; stroke:none;" d="M139 139L140 140L139 139M70 140L71 141L70 140M73 140L74 141L73 140M85 140L86 141L85 140z"/>
<path style="fill:#606060; stroke:none;" d="M92 140L93 141L92 140z"/>
<path style="fill:#2e2e2e; stroke:none;" d="M105 140L106 141L105 140M123 140L124 141L123 140z"/>
<path style="fill:#9c9c9c; stroke:none;" d="M124 140L124 141L129 141L124 140z"/>
<path style="fill:#2e2e2e; stroke:none;" d="M140 140L141 141L140 140z"/>
<path style="fill:#606060; stroke:none;" d="M73 141L74 142L73 141M85 141L86 142L85 141z"/>
<path style="fill:#2e2e2e; stroke:none;" d="M94 141L95 142L94 141z"/>
<path style="fill:#9c9c9c; stroke:none;" d="M102 141L103 142L102 141z"/>
<path style="fill:#606060; stroke:none;" d="M123.333 141.667L123.667 142.333L123.333 141.667z"/>
<path style="fill:#9c9c9c; stroke:none;" d="M137 141L138 142L137 141z"/>
<path style="fill:#606060; stroke:none;" d="M71 142L72 143L71 142M74 142L75 143L74 142z"/>
<path style="fill:#2e2e2e; stroke:none;" d="M79 142L80 143L79 142z"/>
<path style="fill:#606060; stroke:none;" d="M80 142L81 143L80 142M83 142L84 143L83 142M86 142L87 143L86 142z"/>
<path style="fill:#9c9c9c; stroke:none;" d="M90 142L91 143L90 142M94 142L95 143L94 142M103 142L104 143L103 142M138 142L139 143L138 142M81 143L82 144L81 143z"/>
<path style="fill:#2e2e2e; stroke:none;" d="M84 143L85 144L84 143z"/>
<path style="fill:#9c9c9c; stroke:none;" d="M93 143L94 144L93 143z"/>
<path style="fill:#606060; stroke:none;" d="M104 143L105 144L104 143M139 143L140 144L139 143M73 144L74 145L73 144z"/>
<path style="fill:#2e2e2e; stroke:none;" d="M79 144L80 145L79 144z"/>
<path style="fill:#9c9c9c; stroke:none;" d="M80 144L81 145L80 144z"/>
<path style="fill:#606060; stroke:none;" d="M85 144L86 145L85 144z"/>
<path style="fill:#9c9c9c; stroke:none;" d="M92 144L93 145L92 144z"/>
<path style="fill:#2e2e2e; stroke:none;" d="M97 144L98 145L97 144M105 144L106 145L105 144M140 144L141 145L140 144M148 144L149 145L148 144z"/>
<path style="fill:#9c9c9c; stroke:none;" d="M75 145L75 146L78 146L75 145M87 145L87 146L90 146L87 145z"/>
<path style="fill:#111111; stroke:none;" d="M94 152L95 153L94 152z"/>
<path style="fill:#9c9c9c; stroke:none;" d="M95 152L96 153L95 152z"/>
<path style="fill:#111111; stroke:none;" d="M98 152L98 154L100 154L100 152L98 152z"/>
<path style="fill:#9c9c9c; stroke:none;" d="M102 152L103 153L102 152z"/>
<path style="fill:#111111; stroke:none;" d="M103 152L104 153L103 152M105 152L105 153L110 153L105 152M112 152L113 153L112 152z"/>
<path style="fill:#606060; stroke:none;" d="M113 152L113 158L114 158L113 152z"/>
<path style="fill:#9c9c9c; stroke:none;" d="M114 152L115 153L114 152z"/>
<path style="fill:#111111; stroke:none;" d="M115 152L115 153L117 158L118 158L120 153L115 152z"/>
<path style="fill:#9c9c9c; stroke:none;" d="M120 152L121 153L120 152z"/>
<path style="fill:#2e2e2e; stroke:none;" d="M121 152L121 158L122 158L121 152z"/>
<path style="fill:#111111; stroke:none;" d="M122 152L122 153L126 153L122 152z"/>
<path style="fill:#9c9c9c; stroke:none;" d="M127 152C126.364 155.993 124.993 157.364 121 158L121 159L129 159L127 152z"/>
<path style="fill:#111111; stroke:none;" d="M128 152L128 158L129 158L132 153L131 157C133.183 153.801 131.413 152.569 128 152z"/>
<path style="fill:#9c9c9c; stroke:none;" d="M132 152L133 153L132 152z"/>
<path style="fill:#2e2e2e; stroke:none;" d="M94 153L95 154L94 153z"/>
<path style="fill:#606060; stroke:none;" d="M95 153L96 154L95 153z"/>
<path style="fill:#9c9c9c; stroke:none;" d="M97 153L98 154L97 153z"/>
<path style="fill:#2e2e2e; stroke:none;" d="M102 153L103 154L102 153z"/>
<path style="fill:#606060; stroke:none;" d="M103 153L104 154L103 153z"/>
<path style="fill:#2e2e2e; stroke:none;" d="M105 153L107 157L105 153z"/>
<path style="fill:#606060; stroke:none;" d="M106.333 153.667L106.667 154.333L106.333 153.667z"/>
<path style="fill:#ffffff; stroke:none;" d="M107 153L107 155L109 155L109 153L107 153z"/>
<path style="fill:#2e2e2e; stroke:none;" d="M109.667 153.333L110.333 153.667L109.667 153.333M112 153L112 158L113 158L112 153z"/>
<path style="fill:#9c9c9c; stroke:none;" d="M116 153L116 158L117 158L116 153z"/>
<path style="fill:#606060; stroke:none;" d="M122 153L123 154L122 153z"/>
<path style="fill:#ffffff; stroke:none;" d="M129 153L132 155L129 153z"/>
<path style="fill:#9c9c9c; stroke:none;" d="M131 153L132 154L131 153M94 154L95 155L94 154z"/>
<path style="fill:#111111; stroke:none;" d="M95.3333 154.667L95.6667 155.333L95.3333 154.667z"/>
<path style="fill:#606060; stroke:none;" d="M97.6667 154.333L98.3333 154.667L97.6667 154.333z"/>
<path style="fill:#2e2e2e; stroke:none;" d="M99 154L100 155L99 154z"/>
<path style="fill:#9c9c9c; stroke:none;" d="M98 155L98 156L102 156L98 155z"/>
<path style="fill:#111111; stroke:none;" d="M102.333 154.667L102.667 155.333L102.333 154.667z"/>
<path style="fill:#9c9c9c; stroke:none;" d="M103 154L104 155L103 154z"/>
<path style="fill:#606060; stroke:none;" d="M109 154L107 157L109 154z"/>
<path style="fill:#111111; stroke:none;" d="M110 154L109 158L110 158L110 154z"/>
<path style="fill:#9c9c9c; stroke:none;" d="M123 154L123 155L126 155L123 154M133 154L134 155L133 154M96 155L97 156L96 155z"/>
<path style="fill:#111111; stroke:none;" d="M97 155L96 158L97 155M100 155L102 158L100 155z"/>
<path style="fill:#9c9c9c; stroke:none;" d="M107 155L108 156L107 155M110 155L111 156L110 155z"/>
<path style="fill:#606060; stroke:none;" d="M123 155L123 156L126 156L123 155M129 155L129 157L131 157L129 155z"/>
<path style="fill:#9c9c9c; stroke:none;" d="M130 155L131 156L130 155z"/>
<path style="fill:#2e2e2e; stroke:none;" d="M131 155L132 156L131 155M95.6667 156.333L96.3333 156.667L95.6667 156.333M101 156L102 157L101 156z"/>
<path style="fill:#606060; stroke:none;" d="M102 156L103 157L102 156z"/>
<path style="fill:#2e2e2e; stroke:none;" d="M109 156L110 157L109 156z"/>
<path style="fill:#606060; stroke:none;" d="M122 156L125 158L125 157L122 156z"/>
<path style="fill:#9c9c9c; stroke:none;" d="M95 157L96 158L95 157z"/>
<path style="fill:#2e2e2e; stroke:none;" d="M97 157L98 158L97 157z"/>
<path style="fill:#9c9c9c; stroke:none;" d="M102 157L103 158L102 157z"/>
<path style="fill:#111111; stroke:none;" d="M105 157L106 158L105 157z"/>
<path style="fill:#606060; stroke:none;" d="M106 157L107 158L106 157z"/>
<path style="fill:#9c9c9c; stroke:none;" d="M108 157L109 158L108 157M110 157L109 159L111 159L110 157z"/>
<path style="fill:#111111; stroke:none;" d="M122 157L123 158L122 157z"/>
<path style="fill:#2e2e2e; stroke:none;" d="M125 157L126 158L125 157M131.667 157.333L132.333 157.667L131.667 157.333z"/>
<path style="fill:#9c9c9c; stroke:none;" d="M96.6667 158.333L97.3333 158.667L96.6667 158.333M100.667 158.333L101.333 158.667L100.667 158.333M105.667 158.333L106.333 158.667L105.667 158.333M112.667 158.333L113.333 158.667L112.667 158.333M117 158L118 159L117 158M132 158L133 159L132 158z"/>
</svg>
