<?xml version="1.0" standalone="no"?>
<!DOCTYPE svg PUBLIC "-//W3C//DTD SVG 20010904//EN"
 "http://www.w3.org/TR/2001/REC-SVG-20010904/DTD/svg10.dtd">
<svg version="1.0" xmlns="http://www.w3.org/2000/svg"
 width="57.000000pt" height="43.000000pt" viewBox="0 0 57.000000 43.000000"
 preserveAspectRatio="xMidYMid meet">

<g transform="translate(0.000000,43.000000) scale(0.100000,-0.100000)"
fill="#000000" stroke="none">
<path d="M141 384 c-36 -26 -51 -74 -51 -170 0 -158 28 -184 202 -184 164 0
188 24 188 186 0 99 -17 147 -61 169 -42 22 -246 21 -278 -1z m280 -40 c41
-44 40 -223 -2 -265 -17 -17 -33 -19 -132 -19 -109 0 -114 1 -138 26 -41 44
-40 223 2 265 17 17 33 19 132 19 109 0 114 -1 138 -26z"/>
<path d="M364 325 c-4 -9 -2 -21 4 -27 15 -15 44 -1 40 19 -4 23 -36 29 -44 8z"/>
<path d="M219 281 c-88 -88 35 -216 130 -135 65 54 22 164 -64 164 -27 0 -44
-8 -66 -29z m111 -21 c59 -59 -19 -143 -88 -94 -45 31 -14 114 43 114 14 0 34
-9 45 -20z"/>
</g>
</svg>
