<?xml version="1.0" standalone="yes"?>
<svg xmlns="http://www.w3.org/2000/svg" width="287" height="266">
<path style="fill:#3dcfd3; stroke:none;" d="M0 0L0 266L287 266L287 0L0 0z"/>
<path style="fill:#3c888b; stroke:none;" d="M135 50L136 51L135 50M122.667 51.3333L123.333 51.6667L122.667 51.3333z"/>
<path style="fill:#2e5051; stroke:none;" d="M124.667 51.3333L125.333 51.6667L124.667 51.3333z"/>
<path style="fill:#010202; stroke:none;" d="M133 82L133 88C119.013 88 104.982 88.3279 91 87.9853C84.4315 87.8244 77.0218 85.8171 71.4398 90.5725C56.7387 103.097 56.1022 143.389 72.0934 155.347C77.5061 159.395 85.6398 158 92 158C93.0571 144.606 93.4277 128.356 108 122.283C127.62 114.107 162.308 131.578 167.536 102C169.248 92.3157 171.368 68.8953 164.606 61.1844C152.178 47.0125 106.82 45.1931 98.3943 65.0039C88.5207 88.2197 119.326 82 133 82z"/>
<path style="fill:#2e5051; stroke:none;" d="M140.667 51.3333L141.333 51.6667L140.667 51.3333z"/>
<path style="fill:#3c888b; stroke:none;" d="M142.667 51.3333L143.333 51.6667L142.667 51.3333M117.667 52.3333L118.333 52.6667L117.667 52.3333z"/>
<path style="fill:#2e5051; stroke:none;" d="M119 52L120 53L119 52M148 52L149 53L148 52z"/>
<path style="fill:#3c888b; stroke:none;" d="M149 52L150 53L149 52M113 53L114 54L113 53z"/>
<path style="fill:#2e5051; stroke:none;" d="M114 53L115 54L114 53M151 53L152 54L151 53z"/>
<path style="fill:#3c888b; stroke:none;" d="M152 53L153 54L152 53M110 54L111 55L110 54z"/>
<path style="fill:#2e5051; stroke:none;" d="M111 54L112 55L111 54M154 54L155 55L154 54z"/>
<path style="fill:#3c888b; stroke:none;" d="M155 54L156 55L155 54M108 55L109 56L108 55z"/>
<path style="fill:#2e5051; stroke:none;" d="M109 55L110 56L109 55z"/>
<path style="fill:#3c888b; stroke:none;" d="M157 55L158 56L157 55z"/>
<path style="fill:#2e5051; stroke:none;" d="M106 56L107 57L106 56M158 56L159 57L158 56z"/>
<path style="fill:#3c888b; stroke:none;" d="M104 57L105 58L104 57M160 57L161 58L160 57z"/>
<path style="fill:#2e5051; stroke:none;" d="M103 58L104 59L103 58M161 58L162 59L161 58z"/>
<path style="fill:#3c888b; stroke:none;" d="M101 59L102 60L101 59M164 60L165 61L164 60z"/>
<path style="fill:#2e5051; stroke:none;" d="M100 61L101 62L100 61z"/>
<path style="fill:#3c888b; stroke:none;" d="M165 61L166 62L165 61z"/>
<path style="fill:#2e5051; stroke:none;" d="M99 62L100 63L99 62z"/>
<path style="fill:#3c888b; stroke:none;" d="M111 62L111 63L114 63L111 62z"/>
<path style="fill:#2e5051; stroke:none;" d="M114 62L115 63L114 62z"/>
<path style="fill:#3c888b; stroke:none;" d="M98 63L99 64L98 63M109 63L110 64L109 63z"/>
<path style="fill:#3dcfd3; stroke:none;" d="M110.228 63.7469C104.057 66.495 108.56 76.5056 114.892 74.2137C122.139 71.5906 117.243 60.6233 110.228 63.7469z"/>
<path style="fill:#2e5051; stroke:none;" d="M116 63L117 64L116 63M166 63L167 64L166 63M117 64L118 65L117 64z"/>
<path style="fill:#3c888b; stroke:none;" d="M97 65L98 66L97 65M107 65L108 66L107 65z"/>
<path style="fill:#2e5051; stroke:none;" d="M167 65L168 66L167 65M97.3333 66.6667L97.6667 67.3333L97.3333 66.6667z"/>
<path style="fill:#3c888b; stroke:none;" d="M118 66L119 67L118 66z"/>
<path style="fill:#2e5051; stroke:none;" d="M106 67L106 70L107 70L106 67M119.333 68.6667L119.667 69.3333L119.333 68.6667z"/>
<path style="fill:#3c888b; stroke:none;" d="M168 68L168 92L169 92L168 68M96 71L96 83L97 83L96 71M107 71L108 72L107 71M118 71L119 72L118 71z"/>
<path style="fill:#2e5051; stroke:none;" d="M117 73L118 74L117 73M110 74L111 75L110 74z"/>
<path style="fill:#3c888b; stroke:none;" d="M115 74L116 75L115 74z"/>
<path style="fill:#7b9d9e; stroke:none;" d="M169.333 75.6667L169.667 76.3333L169.333 75.6667z"/>
<path style="fill:#2e5051; stroke:none;" d="M97 80C97.9045 84.2209 102.346 83 106 83L133 83L133 82C122.623 82 106.21 85.122 97 80z"/>
<path style="fill:#7b9d9e; stroke:none;" d="M169 81L170 82L169 81M132 83L132 87L133 87L132 83z"/>
<path style="fill:#3c888b; stroke:none;" d="M78 86L78 87L118 87C107.488 82.589 89.4341 86 78 86z"/>
<path style="fill:#7b9d9e; stroke:none;" d="M118 86L119 87L118 86M172 86L173 87L172 86z"/>
<path style="fill:#3c888b; stroke:none;" d="M173 86L172 93L173 93L173 86z"/>
<path style="fill:#7b9d9e; stroke:none;" d="M174.667 86.3333L175.333 86.6667L174.667 86.3333z"/>
<path style="fill:#3c888b; stroke:none;" d="M180 86L180 87L184 87L180 86M75.6667 87.3333L76.3333 87.6667L75.6667 87.3333z"/>
<path style="fill:#2e5051; stroke:none;" d="M77 87L77 88L80 88L77 87M85 87L85 88L133 88C120.586 82.7907 98.5265 87 85 87M173 87L174 88L173 87z"/>
<path style="fill:#010202; stroke:none;" d="M168 163L132 163L132 158L174 158C180.092 158 187.751 159.261 192.985 155.486C206.973 145.398 205.714 119.667 201.844 105C199.965 97.8788 196.622 90.1976 189 87.804C185.677 86.7604 176.527 85.4483 174.028 88.6034C172.027 91.1297 172.755 96.8838 172.246 100C170.737 109.237 167.537 116.739 159 121.633C138.366 133.464 100.843 111.687 97.8588 146C97.3504 151.846 97.8496 157.179 97.9853 163C98.1195 168.756 96.5025 176.725 99.3179 181.961C109.095 200.141 152.599 197.933 164.721 183.907C169.502 178.376 168 169.788 168 163z"/>
<path style="fill:#2e5051; stroke:none;" d="M188 87L189 88L188 87z"/>
<path style="fill:#3c888b; stroke:none;" d="M189.667 87.3333L190.333 87.6667L189.667 87.3333z"/>
<path style="fill:#2e5051; stroke:none;" d="M73 88L74 89L73 88M191 88L192 89L191 88M72 89L73 90L72 89z"/>
<path style="fill:#3c888b; stroke:none;" d="M193 89L194 90L193 89M194 90L195 91L194 90z"/>
<path style="fill:#2e5051; stroke:none;" d="M70 91L71 92L70 91M195 91L196 92L195 91M69 92L70 93L69 92z"/>
<path style="fill:#7b9d9e; stroke:none;" d="M168 92L168 97L169 97L168 92z"/>
<path style="fill:#3c888b; stroke:none;" d="M196 92L197 93L196 92M68 93L69 94L68 93z"/>
<path style="fill:#2e5051; stroke:none;" d="M172 93L173 94L172 93z"/>
<path style="fill:#3c888b; stroke:none;" d="M67 94L68 95L67 94M172 94L173 95L172 94z"/>
<path style="fill:#2e5051; stroke:none;" d="M197 94L198 95L197 94M172 95L172 99L173 99L172 95z"/>
<path style="fill:#3c888b; stroke:none;" d="M198 95L199 96L198 95z"/>
<path style="fill:#2e5051; stroke:none;" d="M66 96L67 97L66 96z"/>
<path style="fill:#3c888b; stroke:none;" d="M65 97L66 98L65 97M199 97L200 98L199 97z"/>
<path style="fill:#2e5051; stroke:none;" d="M65 98L66 99L65 98z"/>
<path style="fill:#7b9d9e; stroke:none;" d="M171.333 98.6667L171.667 99.3333L171.333 98.6667z"/>
<path style="fill:#3c888b; stroke:none;" d="M64 99L65 100L64 99M200 99L201 100L200 99z"/>
<path style="fill:#2e5051; stroke:none;" d="M64 100L65 101L64 100M200 100L201 101L200 100z"/>
<path style="fill:#3c888b; stroke:none;" d="M63 101L64 102L63 101z"/>
<path style="fill:#2e5051; stroke:none;" d="M63.3333 102.667L63.6667 103.333L63.3333 102.667M167 102L168 103L167 102z"/>
<path style="fill:#3c888b; stroke:none;" d="M171 102L172 103L171 102M201 102L202 103L201 102M167.333 103.667L167.667 104.333L167.333 103.667z"/>
<path style="fill:#2e5051; stroke:none;" d="M171.333 103.667L171.667 104.333L171.333 103.667M201 103L202 104L201 103z"/>
<path style="fill:#3c888b; stroke:none;" d="M62 105L63 106L62 105M202 105L203 106L202 105z"/>
<path style="fill:#2e5051; stroke:none;" d="M62 106L63 107L62 106M166 106L167 107L166 106z"/>
<path style="fill:#3c888b; stroke:none;" d="M170.333 106.667L170.667 107.333L170.333 106.667z"/>
<path style="fill:#2e5051; stroke:none;" d="M202.333 106.667L202.667 107.333L202.333 106.667z"/>
<path style="fill:#3c888b; stroke:none;" d="M166 107L167 108L166 107z"/>
<path style="fill:#2e5051; stroke:none;" d="M170 108L171 109L170 108z"/>
<path style="fill:#3c888b; stroke:none;" d="M61.3333 109.667L61.6667 110.333L61.3333 109.667M203.333 109.667L203.667 110.333L203.333 109.667M165 110L166 111L165 110M169 110L170 111L169 110z"/>
<path style="fill:#2e5051; stroke:none;" d="M61.3333 111.667L61.6667 112.333L61.3333 111.667M169 111L170 112L169 111M203 111L203 114L204 114L203 111z"/>
<path style="fill:#3c888b; stroke:none;" d="M164 112L165 113L164 112M168 112L169 113L168 112z"/>
<path style="fill:#2e5051; stroke:none;" d="M163 113L164 114L163 113M168 113L169 114L168 113z"/>
<path style="fill:#3c888b; stroke:none;" d="M167 114L168 115L167 114z"/>
<path style="fill:#2e5051; stroke:none;" d="M161 115L162 116L161 115z"/>
<path style="fill:#3c888b; stroke:none;" d="M166 115L167 116L166 115M160 116L161 117L160 116z"/>
<path style="fill:#2e5051; stroke:none;" d="M158 117L159 118L158 117z"/>
<path style="fill:#3c888b; stroke:none;" d="M204 117L204 121L205 121L204 117M60.3333 118.667L60.6667 119.333L60.3333 118.667z"/>
<path style="fill:#2e5051; stroke:none;" d="M156 118L157 119L156 118M152.667 119.333L153.333 119.667L152.667 119.333z"/>
<path style="fill:#3c888b; stroke:none;" d="M154 119L155 120L154 119M162 119L163 120L162 119M114 120L114 121L118 121L114 120M120 120L120 121L125 121L120 120z"/>
<path style="fill:#7b9d9e; stroke:none;" d="M125 120L126 121L125 120z"/>
<path style="fill:#3c888b; stroke:none;" d="M126 120L127 121L126 120M131 120L131 121L143 121L131 120z"/>
<path style="fill:#7b9d9e; stroke:none;" d="M143 120L144 121L143 120z"/>
<path style="fill:#3c888b; stroke:none;" d="M144.667 120.333L145.333 120.667L144.667 120.333z"/>
<path style="fill:#2e5051; stroke:none;" d="M146 120L147 121L146 120z"/>
<path style="fill:#3c888b; stroke:none;" d="M147.667 120.333L148.333 120.667L147.667 120.333M161 120L162 121L161 120z"/>
<path style="fill:#2e5051; stroke:none;" d="M109 121L110 122L109 121z"/>
<path style="fill:#3c888b; stroke:none;" d="M110 121L111 122L110 121z"/>
<path style="fill:#7b9d9e; stroke:none;" d="M114 121L115 122L114 121z"/>
<path style="fill:#3c888b; stroke:none;" d="M159 121L160 122L159 121z"/>
<path style="fill:#2e5051; stroke:none;" d="M204 121L204 129L205 129L204 121z"/>
<path style="fill:#3c888b; stroke:none;" d="M107 122L108 123L107 122M157 122L158 123L157 122z"/>
<path style="fill:#2e5051; stroke:none;" d="M104 123L105 124L104 123z"/>
<path style="fill:#3c888b; stroke:none;" d="M105 123L106 124L105 123M153.667 123.333L154.333 123.667L153.667 123.333z"/>
<path style="fill:#2e5051; stroke:none;" d="M155 123L156 124L155 123z"/>
<path style="fill:#3c888b; stroke:none;" d="M103 124L104 125L103 124z"/>
<path style="fill:#7b9d9e; stroke:none;" d="M117 124L118 125L117 124M120 124L120 125L123 125L120 124z"/>
<path style="fill:#3c888b; stroke:none;" d="M125 124L126 125L125 124z"/>
<path style="fill:#2e5051; stroke:none;" d="M126 124L126 125L142 126L142 125L126 124z"/>
<path style="fill:#3c888b; stroke:none;" d="M128 124L128 125L134 125L128 124z"/>
<path style="fill:#7b9d9e; stroke:none;" d="M134.667 124.333L135.333 124.667L134.667 124.333z"/>
<path style="fill:#3c888b; stroke:none;" d="M148.667 124.333L149.333 124.667L148.667 124.333z"/>
<path style="fill:#2e5051; stroke:none;" d="M150.667 124.333L151.333 124.667L150.667 124.333z"/>
<path style="fill:#3c888b; stroke:none;" d="M102 125L103 126L102 125M112 125L113 126L112 125z"/>
<path style="fill:#2e5051; stroke:none;" d="M113.667 125.333L114.333 125.667L113.667 125.333z"/>
<path style="fill:#7b9d9e; stroke:none;" d="M60.3333 126.667L60.6667 127.333L60.3333 126.667z"/>
<path style="fill:#2e5051; stroke:none;" d="M108.667 126.333L109.333 126.667L108.667 126.333z"/>
<path style="fill:#3c888b; stroke:none;" d="M105 127L106 128L105 127z"/>
<path style="fill:#2e5051; stroke:none;" d="M106 127L107 128L106 127z"/>
<path style="fill:#3c888b; stroke:none;" d="M104 128L105 129L104 128z"/>
<path style="fill:#2e5051; stroke:none;" d="M61 129L62 130L61 129z"/>
<path style="fill:#3c888b; stroke:none;" d="M98 129L99 130L98 129z"/>
<path style="fill:#2e5051; stroke:none;" d="M103 129L104 130L103 129z"/>
<path style="fill:#3c888b; stroke:none;" d="M204 129L204 132L205 132L204 129M61.3333 130.667L61.6667 131.333L61.3333 130.667z"/>
<path style="fill:#2e5051; stroke:none;" d="M97 130L98 131L97 130M102 130L103 131L102 130z"/>
<path style="fill:#3c888b; stroke:none;" d="M101 131L102 132L101 131M96 132L97 133L96 132z"/>
<path style="fill:#2e5051; stroke:none;" d="M100 133L101 134L100 133M203.333 133.667L203.667 134.333L203.333 133.667M95 134L96 135L95 134z"/>
<path style="fill:#3c888b; stroke:none;" d="M99 134L100 135L99 134z"/>
<path style="fill:#2e5051; stroke:none;" d="M62.3333 135.667L62.6667 136.333L62.3333 135.667z"/>
<path style="fill:#3c888b; stroke:none;" d="M95 135L96 136L95 135z"/>
<path style="fill:#2e5051; stroke:none;" d="M99.3333 135.667L99.6667 136.333L99.3333 135.667z"/>
<path style="fill:#3c888b; stroke:none;" d="M203 135L204 136L203 135M62 137L63 138L62 137z"/>
<path style="fill:#2e5051; stroke:none;" d="M94 137L95 138L94 137z"/>
<path style="fill:#3c888b; stroke:none;" d="M98.3333 137.667L98.6667 138.333L98.3333 137.667M94 138L95 139L94 138z"/>
<path style="fill:#2e5051; stroke:none;" d="M98 139L99 140L98 139M202 139L203 140L202 139M63 140L64 141L63 140z"/>
<path style="fill:#3c888b; stroke:none;" d="M202 140L203 141L202 140M63 141L64 142L63 141z"/>
<path style="fill:#2e5051; stroke:none;" d="M93 142L94 143L93 142z"/>
<path style="fill:#3c888b; stroke:none;" d="M97 142L97 145L98 145L97 142z"/>
<path style="fill:#2e5051; stroke:none;" d="M201 142L202 143L201 142M64 143L65 144L64 143z"/>
<path style="fill:#3c888b; stroke:none;" d="M93.3333 143.667L93.6667 144.333L93.3333 143.667M201 143L202 144L201 143M64 144L65 145L64 144z"/>
<path style="fill:#7b9d9e; stroke:none;" d="M93.3333 145.667L93.6667 146.333L93.3333 145.667z"/>
<path style="fill:#2e5051; stroke:none;" d="M97 145L97 149L98 149L97 145M200 145L201 146L200 145M65 146L66 147L65 146M199 147L200 148L199 147M66 148L67 149L66 148z"/>
<path style="fill:#3c888b; stroke:none;" d="M198 149L199 150L198 149M67 150L68 151L67 150z"/>
<path style="fill:#2e5051; stroke:none;" d="M97.3333 150.667L97.6667 151.333L97.3333 150.667M68 151L69 152L68 151z"/>
<path style="fill:#7b9d9e; stroke:none;" d="M96 151L96 154L97 154L96 151z"/>
<path style="fill:#3c888b; stroke:none;" d="M196 152L197 153L196 152M69 153L70 154L69 153z"/>
<path style="fill:#2e5051; stroke:none;" d="M92 153L92 158L93 158L92 153z"/>
<path style="fill:#3c888b; stroke:none;" d="M195 153L196 154L195 153M70 154L71 155L70 154M96 154L96 178L97 178L96 154z"/>
<path style="fill:#2e5051; stroke:none;" d="M97 154L98 155L97 154z"/>
<path style="fill:#3c888b; stroke:none;" d="M194 154L195 155L194 154M193 155L194 156L193 155z"/>
<path style="fill:#2e5051; stroke:none;" d="M73 156L74 157L73 156z"/>
<path style="fill:#3c888b; stroke:none;" d="M192 156L193 157L192 156z"/>
<path style="fill:#2e5051; stroke:none;" d="M75 157L76 158L75 157M97 157L97 179L98 179L97 157M189 157L190 158L189 157z"/>
<path style="fill:#3c888b; stroke:none;" d="M190 157L191 158L190 157z"/>
<path style="fill:#2e5051; stroke:none;" d="M78 158L78 159L89 159L78 158z"/>
<path style="fill:#3c888b; stroke:none;" d="M89 158L89 159L93 159L89 158M132 158L133 159L132 158z"/>
<path style="fill:#2e5051; stroke:none;" d="M133 158L133 159L154 159L133 158z"/>
<path style="fill:#3c888b; stroke:none;" d="M154 158L154 159L157 159L154 158z"/>
<path style="fill:#2e5051; stroke:none;" d="M157 158L157 159L167 159L157 158z"/>
<path style="fill:#3c888b; stroke:none;" d="M167 158L167 159L187 159L167 158z"/>
<path style="fill:#7b9d9e; stroke:none;" d="M132 159C134.54 166.654 157.88 163 165 163L165 162C156.15 162 138.711 165.406 132 159z"/>
<path style="fill:#3c888b; stroke:none;" d="M132 162L133 163L132 162M165 162L165 163L168 163L168 167L169 167L169 162L165 162z"/>
<path style="fill:#2e5051; stroke:none;" d="M168 167L168 177L169 177L168 167M150 170L151 171L150 170z"/>
<path style="fill:#3c888b; stroke:none;" d="M151 170L151 171L154 171L151 170z"/>
<path style="fill:#2e5051; stroke:none;" d="M154 170L155 171L154 170M148 171L149 172L148 171z"/>
<path style="fill:#3dcfd3; stroke:none;" d="M149.318 172.032C143.646 175.722 149.884 185.794 155.682 181.242C161.011 177.059 155.177 168.22 149.318 172.032z"/>
<path style="fill:#3c888b; stroke:none;" d="M155 171L156 172L155 171M147 172L148 173L147 172z"/>
<path style="fill:#2e5051; stroke:none;" d="M146 173L147 174L146 173z"/>
<path style="fill:#3c888b; stroke:none;" d="M157 173L158 174L157 173M146 174L146 178L147 178L146 174z"/>
<path style="fill:#2e5051; stroke:none;" d="M158 174L159 175L158 174z"/>
<path style="fill:#3c888b; stroke:none;" d="M158 175L158 179L159 179L158 175M168 177L169 178L168 177z"/>
<path style="fill:#2e5051; stroke:none;" d="M146 178L147 179L146 178z"/>
<path style="fill:#3c888b; stroke:none;" d="M97 179L98 180L97 179z"/>
<path style="fill:#2e5051; stroke:none;" d="M158 179L159 180L158 179M167 179L168 180L167 179M147 180L148 181L147 180z"/>
<path style="fill:#3c888b; stroke:none;" d="M157 180L158 181L157 180M167 180L168 181L167 180M98 181L99 182L98 181z"/>
<path style="fill:#2e5051; stroke:none;" d="M148 181L149 182L148 181z"/>
<path style="fill:#3c888b; stroke:none;" d="M156 181L157 182L156 181z"/>
<path style="fill:#2e5051; stroke:none;" d="M99 182L100 183L99 182M149 182L150 183L149 182z"/>
<path style="fill:#3c888b; stroke:none;" d="M150 182L151 183L150 182M154 182L155 183L154 182z"/>
<path style="fill:#2e5051; stroke:none;" d="M155 182L156 183L155 182z"/>
<path style="fill:#3c888b; stroke:none;" d="M166 182L167 183L166 182M99 183L100 184L99 183z"/>
<path style="fill:#2e5051; stroke:none;" d="M151.667 183.333L152.333 183.667L151.667 183.333z"/>
<path style="fill:#3c888b; stroke:none;" d="M165 183L166 184L165 183M100 184L101 185L100 184z"/>
<path style="fill:#2e5051; stroke:none;" d="M164 184L165 185L164 184z"/>
<path style="fill:#3c888b; stroke:none;" d="M101 185L102 186L101 185z"/>
<path style="fill:#2e5051; stroke:none;" d="M163 185L164 186L163 185M103 186L104 187L103 186z"/>
<path style="fill:#3c888b; stroke:none;" d="M162 186L163 187L162 186z"/>
<path style="fill:#2e5051; stroke:none;" d="M104 187L105 188L104 187M160 187L161 188L160 187z"/>
<path style="fill:#3c888b; stroke:none;" d="M105 188L106 189L105 188M159 188L160 189L159 188z"/>
<path style="fill:#2e5051; stroke:none;" d="M107 189L108 190L107 189z"/>
<path style="fill:#3c888b; stroke:none;" d="M157 189L158 190L157 189z"/>
<path style="fill:#2e5051; stroke:none;" d="M109 190L110 191L109 190M154 190L155 191L154 190z"/>
<path style="fill:#3c888b; stroke:none;" d="M155 190L156 191L155 190M111 191L112 192L111 191z"/>
<path style="fill:#2e5051; stroke:none;" d="M112 191L113 192L112 191M151 191L152 192L151 191z"/>
<path style="fill:#3c888b; stroke:none;" d="M152 191L153 192L152 191M114 192L115 193L114 192z"/>
<path style="fill:#2e5051; stroke:none;" d="M115 192L116 193L115 192M148 192L149 193L148 192z"/>
<path style="fill:#3c888b; stroke:none;" d="M149 192L150 193L149 192M118 193L119 194L118 193z"/>
<path style="fill:#2e5051; stroke:none;" d="M119.667 193.333L120.333 193.667L119.667 193.333M141 193L141 194L144 194L141 193z"/>
<path style="fill:#3c888b; stroke:none;" d="M144 193L145 194L144 193M123 194L123 195L127 195L123 194z"/>
<path style="fill:#2e5051; stroke:none;" d="M127 194L127 195L135 195L127 194z"/>
<path style="fill:#3c888b; stroke:none;" d="M135 194L135 195L138 195L135 194z"/>
</svg>
