<?xml version="1.0" standalone="yes"?>
<svg xmlns="http://www.w3.org/2000/svg" width="539" height="507">
<path style="fill:#fafafa; stroke:none;" d="M0 0L0 197L1 197C18.4646 121.509 75.7467 56.0048 146 24.3117C160.656 17.6999 175.36 12.5922 191 8.88428C201.052 6.50122 212.94 6.08118 222 1L201 0L156 0L0 0z"/>
<path style="fill:#a1a1a1; stroke:none;" d="M0 221L1 221C7.75655 136.098 76.466 60.9121 151 27.3117C179.331 14.5399 210.9 7.96356 241 1C231.848 -2.84042 222.686 1.76337 214 3.95602C194.527 8.87189 175.605 11.6172 157 19.5725C77.9755 53.363 0 129.641 0 221z"/>
<path style="fill:#5f5f5f; stroke:none;" d="M241 0.517761C203.15 8.54449 164.245 18.7435 130 37.3087C61.7303 74.3192 10.388 144.251 0.289352 222C-10.3516 303.925 26.0216 393.925 86.1698 449.324C116.934 477.66 158.672 500.538 202 495.826C229.193 492.87 231.327 464.442 213 449.329C196.486 435.711 172.33 432.451 154 421.547C111.296 396.142 76.7825 353.667 62.2052 306C57.5195 290.678 57.1844 275.826 56.9961 260C56.79 242.674 56.6581 227.073 61.1559 210C83.5393 125.034 166.125 62.7913 252 56.9105C270.449 55.6471 290.874 54.9719 309 59.4753C400.373 82.1776 471 161.015 471 257C471 272.451 470.375 288.037 466.09 303C459.866 324.732 450.057 345.568 436.961 364C420.001 387.869 395.215 408.554 369 421.63C349.783 431.215 327.849 436.572 312.015 452.04C293.018 470.598 306.646 494.917 331 496.486C352.468 497.869 373.4 485.716 392 476.889C454.751 447.107 504.786 385.363 521.627 318C527.709 293.67 532.639 270.243 530.911 245C522.613 123.832 425.998 20.3705 305 5.84491C284.257 3.3548 262.139 -3.96503 241 0.517761z"/>
<path style="fill:#a1a1a1; stroke:none;" d="M253 0L253 1L268 1L253 0M281 0L281 1C314.741 8.80597 348.135 12.4441 380 27.3233C465.29 67.1494 524.483 152.14 530.911 246C536.907 333.564 481.453 423.506 408 467.6C385.332 481.208 351.761 501.529 324 495.483C309.469 492.318 297.678 476.645 305 462C309.513 452.975 318.787 446.979 327 441.692C343.262 431.224 362.333 426.254 379 416.576C414.441 395.995 443.37 364.257 458.55 326C503.754 212.077 425.176 82.2652 307 58.8079C227.834 43.0938 144.284 78.0512 95.4252 141C33.302 221.038 47.7829 332.033 122 398.829C135.321 410.819 150.718 421.216 167 428.691C180.493 434.886 195.21 438.743 208 446.479C227.111 458.039 233.482 482.212 210 493.204C184.595 505.096 145.083 488.827 123 476.15C57.922 438.79 10.9444 359.849 1 286C-6.63626 304.198 7.26218 333.313 14.1389 350C31.1877 391.371 55.8461 429.579 90 459C103.247 470.411 119.339 482.79 136 488.655C161.694 497.701 207.545 516.65 226.787 485.985C236.553 470.422 228.045 453.845 214 444.36C197.464 433.192 177.479 429 160 419.677C128.602 402.93 101.45 374.743 83.8727 344C70.4667 320.553 62 295.039 62 268C62 238.585 63.0155 213.688 74.8727 186C120.171 80.222 253.89 29.8214 357 81.3766C466.663 136.208 503.515 285.023 419.829 378C404.866 394.625 384.291 409.328 364 418.691C344.509 427.684 321.016 434.489 306.185 451.015C287.725 471.584 303.837 501.119 330 502.91C340.896 503.657 350.128 499.152 360 495.425C377.483 488.825 394.014 482.324 410 472.424C478.905 429.753 528.928 354.721 536.7 273C539.279 245.882 533.481 214.874 525.72 189C493.931 83.0228 393.303 0 281 0z"/>
<path style="fill:#fafafa; stroke:none;" d="M308 0L308 1C334.431 6.45535 360.699 12.6262 385 24.6049C476.586 69.7501 541.924 168.32 536.625 272C535.818 287.799 530.217 304.909 525.721 320C506.403 384.833 465.347 437.227 408 473.05C392.085 482.992 375.361 489.085 358 495.811C348.328 499.558 338.714 504.248 328 502.561C297.29 497.725 289.366 464.27 313 445.669C333.768 429.324 359.704 423.117 382 409.536C424.646 383.56 455.298 339.187 464.385 290C469.276 263.524 467.98 231.501 459.67 206C444.75 160.216 419.095 120.082 378 93.0787C287.475 33.5959 155.262 59.6547 94.358 150C39.9651 230.687 54.426 335.648 129 398.704C144.321 411.658 160.838 420.53 179 428.688C191.902 434.484 205.866 438.036 217 447.326C239.461 466.066 230.762 487.088 208 499.621C201.129 503.405 193.446 502.653 186 502C166.215 500.266 142.054 492.688 125 482.603C62.7994 445.824 15.6991 379.026 1 308L0 308L0 507L539 507L539 0L308 0z"/>
<path style="fill:#2f2f2f; stroke:none;" d="M237 6.43906C201.411 11.986 164.716 22.0064 133 39.3125C56.2449 81.1945 9.38717 156.65 1.16975 243C-0.924526 265.007 4.37998 285.744 9.11574 307C28.2176 392.735 101.756 500.223 201 492.91C224.989 491.142 228.113 464.855 211 451.9C193.516 438.663 169.763 434.958 151 423.536C109.716 398.405 72.4327 355.231 59.1551 308C22.6877 178.279 136.632 53 266 53C282.845 53 300.718 52.8881 317 57.7207C421.857 88.8428 495.855 192.798 469.764 303C465.534 320.867 456.735 339.564 446.91 355C429.05 383.063 403.329 406.894 374 422.691C356.562 432.082 337.541 437.486 321 448.746C304.553 459.942 298.395 489.493 325 492.815C352.372 496.233 381.289 480.062 404 466.603C474.884 424.598 517.998 352.236 527.714 271C530.364 248.85 525.524 224.539 520.651 203C493.914 84.8362 379.911 1.62204 260 6.89581C252.297 7.23462 244.793 5.2244 237 6.43906z"/>
<path style="fill:#040404; stroke:none;" d="M272 9.42438C259.419 11.0755 246.586 8.82129 234 10.1736C218.613 11.8268 199.893 16.9343 185 21.439C106.38 45.219 35.451 107.56 14.4784 189C8.85119 210.851 3.04917 236.387 4.03935 259C4.52179 270.017 7.87873 280.233 9.75 291C19.6335 347.866 46.9405 406.636 91 445.285C120.823 471.445 160.822 493.991 202 489.895C226.669 487.441 220.656 461.091 205 451.61C187.822 441.207 167.274 437.526 150 426.931C98.7868 395.519 59.2639 341.653 49.3256 282C31.9648 177.795 120.117 78.234 217 53.8951C230.831 50.4205 244.891 50.5785 259 49.9606C278.756 49.0955 300.832 48.6194 320 54.7462C354.784 65.8643 386.411 82.6052 413 108.039C480.893 172.984 500.475 277.386 448.91 358C431.249 385.61 405.551 409.039 377 425.124C360.568 434.382 342.415 439.894 326 449.337C311.075 457.924 298.979 485.808 325 489.787C345.324 492.895 365.342 482.272 383 473.784C435.828 448.389 472.356 409.422 499.32 358C565.211 232.342 490.157 73.8244 361 26.9105C334.697 17.3563 300.503 5.68375 272 9.42438z"/>
<path style="fill:#a1a1a1; stroke:none;" d="M250 114.465C200.433 123.386 152.733 148.65 130.489 196C121.252 215.663 114.85 240.171 116.093 262C116.736 273.277 121.01 283.499 124.656 294C138.583 334.111 169.182 374.87 214 382.671C233.356 386.04 238.32 367.655 236.83 352C233.966 321.901 229.327 286.704 236.896 257C240.843 241.51 254.223 228.068 271 232.24C283.4 235.323 290.558 249.389 292.739 261C297.801 287.943 295.975 318.961 292.424 346C290.338 361.889 291.793 384.637 313 382.907C357.946 379.239 390.922 332.723 403.344 294C406.785 283.275 411.821 273.608 411.821 262C411.821 193.941 369.989 141.802 306 121.975C288.922 116.683 268.13 111.201 250 114.465z"/>
<path style="fill:#5f5f5f; stroke:none;" d="M259 118.71C249.922 118.842 241.787 122.829 233 124.6C211.459 128.943 190.547 136.897 173 150.514C114.745 195.722 107.368 278.474 151.13 336C161.533 349.674 174.926 360.573 190 368.691C198.922 373.495 219.058 383.354 227.442 373.786C235.658 364.41 230.888 346.118 229.424 335C226.276 311.089 225.375 284.575 231.13 261C235.498 243.102 248.509 222.279 270 227.237C285.101 230.721 293.754 244.834 297.116 259C303.063 284.06 301.71 310.59 299.169 336C298.006 347.634 291.038 375.385 309 377.772C320.023 379.236 334.812 371.103 344 365.85C373.1 349.211 390.082 321.257 399.438 290C401.885 281.826 405.892 274.745 405.996 266C406.351 236.366 400.763 207.439 384.564 182C359.171 142.122 305.858 118.029 259 118.71z"/>
<path style="fill:#2f2f2f; stroke:none;" d="M255 122.465C204.919 131.459 157.451 153.462 136.428 203C114.982 253.535 128.186 318.059 172 352.996C183.73 362.349 199.712 372.171 215 373.812C234.89 375.946 225.705 346.682 224.975 336C222.997 307.033 219.316 274.39 231.901 247C238.559 232.512 254.229 219.464 271 223.761C286.205 227.656 294.994 240.918 299.667 255C308.059 280.29 305.484 306.991 304.035 333C303.434 343.808 293.426 374.858 313 373.891C322.958 373.399 333.539 367.833 342 362.999C371.686 346.041 387.217 318.713 396.771 287C409.763 243.872 396.637 192.381 363 161.09C345.118 144.454 322.454 134.385 299 128.626C286.503 125.557 267.726 120.179 255 122.465z"/>
<path style="fill:#040404; stroke:none;" d="M256 126.465C204.452 135.659 160.053 156.107 138.337 207C118.311 253.934 133.638 318.913 174 350.424C184.405 358.547 198.599 367.935 212 369.791C230.963 372.417 220.657 342.89 219.91 332C217.89 302.523 216.469 269.023 230.633 242C237.545 228.815 254.163 215.41 270 219.493C312.693 230.501 312.476 293.257 309.17 328C308.086 339.39 297.942 371.269 316 369.906C324.053 369.298 330.989 364.778 338 361.248C369.533 345.368 384.46 316.293 394.036 284C416.24 209.129 357.429 136.874 283 129.925C274.188 129.102 264.827 124.89 256 126.465z"/>
</svg>
